<svg width="100px" height="100px" viewBox="0 0 100 100" version="1.1" xmlns="http://www.w3.org/2000/svg" xmlns:xlink="http://www.w3.org/1999/xlink">
  <rect id="Rectangle-3" transform="translate(28.397339, 25.644291) rotate(45.000000) translate(-28.397339, -25.644291) " x="25.8973394" y="-6.70799962" width="5" height="64.7045815" rx="2"></rect>
  <rect id="Rectangle-3" transform="translate(71.383883, 26.299865) rotate(-45.000000) translate(-71.383883, -26.299865) " x="68.8838835" y="-5.60013524" width="5" height="63.8" rx="2"></rect>
  <circle id="Oval-2" stroke="#000000" stroke-width="5" fill-opacity="0" cx="50.5" cy="50.5" r="14.5"></circle>
  <polygon id="Triangle-4" points="5.5 46 8 49 3 49"></polygon>
  <rect id="Rectangle-21" transform="translate(4.828427, 46.328427) rotate(45.000000) translate(-4.828427, -46.328427) " x="4.32842712" y="42.8284271" width="1" height="7"></rect>
  <polygon id="Triangle" points="3.1 47.35 5.1 49.35 1.1 49.35"></polygon>
  <rect id="Rectangle-4" x="2.5" y="48.3" width="5.79" height="1.03553391"></rect>
  <polygon id="Triangle-4" points="94.5 46 97 49 92 49"></polygon>
  <rect id="Rectangle-21" transform="translate(94.528427, 46.678427) rotate(-45.000000) translate(-94.528427, -46.678427) " x="94.0284271" y="43.1784271" width="1" height="7"></rect>
  <polygon id="Triangle" points="96.35 47.8 98.35 49.8 94.35 49.8"></polygon>
  <rect id="Rectangle-4" x="91.2" y="48.77" width="5.79" height="1.03553391"></rect>
</svg>