<svg width="50" height="50" viewBox="0 0 50 50" fill="none" xmlns="http://www.w3.org/2000/svg">
<path fill-rule="evenodd" clip-rule="evenodd" d="M25 50C38.8071 50 50 38.8071 50 25C50 11.1929 38.8071 0 25 0C11.1929 0 0 11.1929 0 25C0 38.8071 11.1929 50 25 50ZM35.5089 32.4332C36.5822 32.0481 37.4126 31.5098 38 30.8182V24.6043H31.7667V26.9679H34.7365V29.6524C34.2143 30.1658 33.3405 30.4225 32.1148 30.4225C30.8965 30.4225 29.9718 30.0053 29.3409 29.1711C28.7099 28.3369 28.3944 27.1034 28.3944 25.4706V24.4759C28.4017 22.8574 28.6954 21.6381 29.2756 20.8182C29.8558 19.9982 30.7006 19.5882 31.8102 19.5882C32.6805 19.5882 33.3622 19.795 33.8554 20.2086C34.3558 20.6221 34.6785 21.2745 34.8235 22.1658H38C37.8042 20.4831 37.1769 19.2032 36.118 18.3262C35.0592 17.4421 33.5907 17 31.7123 17C30.3634 17 29.1849 17.303 28.1769 17.9091C27.1761 18.508 26.4073 19.3779 25.8707 20.5187C25.3413 21.6524 25.0766 22.9964 25.0766 24.5508V25.6096C25.0911 27.1212 25.3775 28.4367 25.9359 29.5562C26.5016 30.6756 27.2994 31.5312 28.3292 32.123C29.3662 32.7077 30.5701 33 31.9408 33C33.2462 33 34.4355 32.8111 35.5089 32.4332ZM19.05 19.8128H23.9017V17.2139H11V19.8128H15.7865V32.7861H19.05V19.8128Z" fill="black"/>
</svg>
