<svg width="100px" height="100px" viewBox="0 0 100 100" version="1.1" xmlns="http://www.w3.org/2000/svg" xmlns:xlink="http://www.w3.org/1999/xlink">
  <polygon id="Polygon" stroke="#000000" stroke-width="3" stroke-linecap="round" stroke-linejoin="round" transform="translate(55.678781, 61.142550) rotate(-3.000000) translate(-55.678781, -61.142550) " points="55.6787809 52.6425505 68.1787809 61.1425505 55.6787809 69.6425505 43.1787809 61.1425505"></polygon>
  <polygon id="Polygon" stroke="#000000" stroke-width="3" stroke-linecap="round" stroke-linejoin="round" transform="translate(43.813537, 61.351250) rotate(4.000000) translate(-43.813537, -61.351250) " points="43.8135367 52.8512503 56.3135367 61.3512503 43.8135367 69.8512503 31.3135367 61.3512503"></polygon>
  <rect id="Rectangle-5" x="40.7510561" y="11" width="17" height="47"></rect>
  <rect id="Rectangle-6" x="29.7510561" y="60" width="16" height="29"></rect>
  <rect id="Rectangle-9" transform="translate(38.000000, 92.481292) scale(-1, 1) rotate(29.000000) translate(-38.000000, -92.481292) " x="29.4" y="90.9812923" width="17.2" height="3" rx="1"></rect>
  <rect id="Rectangle-11" transform="translate(35.942746, 89.804041) scale(-1, 1) rotate(27.000000) translate(-35.942746, -89.804041) " x="30.2674636" y="87.3040407" width="11.350565" height="5"></rect>
  <rect id="Rectangle-10" transform="translate(31.251056, 90.500000) scale(-1, 1) translate(-31.251056, -90.500000) " x="29.7510561" y="83" width="3" height="15" rx="1.5"></rect>
  <polygon id="Triangle-5" stroke="#000000" stroke-width="2" stroke-linecap="round" stroke-linejoin="round" points="49.2510561 2 56.7510561 11 41.7510561 11"></polygon>
  <rect id="Rectangle-9" transform="translate(62.000000, 92.481292) rotate(29.000000) translate(-62.000000, -92.481292) " x="53.4" y="90.9812923" width="17.2" height="3" rx="1"></rect>
  <rect id="Rectangle-11" transform="translate(62.942746, 89.804041) rotate(27.000000) translate(-62.942746, -89.804041) " x="57.2674636" y="87.3040407" width="11.350565" height="5"></rect>
  <rect id="Rectangle-10" x="66.7510561" y="83" width="3" height="15" rx="1.5"></rect>
  <rect id="Rectangle-7" x="53.7510561" y="61" width="16" height="28"></rect>
  <rect id="Rectangle-8" transform="translate(46.687007, 69.209592) rotate(-49.000000) translate(-46.687007, -69.209592) " x="42.413174" y="67.7095916" width="8.54766681" height="3"></rect>
  <rect id="Rectangle-8" transform="translate(52.687007, 69.209592) rotate(49.000000) translate(-52.687007, -69.209592) " x="48.413174" y="67.7095916" width="8.54766681" height="3"></rect>
</svg>