<svg width="50" height="50" viewBox="0 0 50 50" fill="none" xmlns="http://www.w3.org/2000/svg">
<circle cx="25" cy="25" r="25" fill="#1F3860"/>
<path d="M45.8828 21.3547H34.3347C33.4686 17.8079 30.6778 14.9507 27.2134 14.064V6.87192C27.2134 5.78818 26.3473 5 25.3849 5H24.4226C23.364 5 22.5941 5.8867 22.5941 6.87192V14.1626C19.1297 15.0493 16.4351 17.8079 15.569 21.4532H4.11715C2.96234 21.4532 2 22.4384 2 23.6207V24.0148C2 25.197 2.96234 26.0837 4.02092 26.0837H15.4728C16.1464 28.8424 17.9749 31.2069 20.3808 32.4877L15.3766 42.2414C14.8954 43.1281 15.2803 44.3103 16.1464 44.803C16.4351 44.9015 16.7238 45 17.0126 45H33.0837C34.1423 45 34.9121 44.2118 35.0084 43.1281C35.0084 42.8325 34.9121 42.4384 34.7197 42.1429L29.6192 32.4877C31.9289 31.2069 33.7573 28.8424 34.3347 26.0837H45.8828C47.0377 26.0837 48 25.0985 48 23.9163V23.4236C48 22.3399 47.0377 21.3547 45.8828 21.3547ZM24.9038 19.4828C27.2134 19.4828 29.0418 21.3547 29.0418 23.7192C29.0418 26.0837 27.2134 27.9557 24.9038 27.9557C22.5941 27.9557 20.7657 26.0837 20.7657 23.7192C20.7657 21.4532 22.6904 19.4828 24.9038 19.4828Z" fill="white"/>
</svg>
