<svg width="50" height="50" viewBox="0 0 50 50" fill="none" xmlns="http://www.w3.org/2000/svg">
<circle cx="25" cy="25" r="25" fill="#1F3860"/>
<path d="M41.1405 12.5648C40.1934 11.5341 38.5833 11.4404 37.5415 12.3774L33.6584 16.2193C31.8589 15.0012 29.87 14.2515 27.6917 13.8767V8.4418C27.597 7.03622 26.271 5.91176 24.8504 6.00546C23.5244 6.09917 22.5773 7.12992 22.3879 8.4418V13.9704C20.2096 14.3452 18.2207 15.1886 16.3265 16.4067L12.3486 12.4711C11.3068 11.5341 9.69674 11.6278 8.84435 12.6585C7.80254 13.5956 7.70783 15.1886 8.65493 16.2193L12.6328 20.1549C7.70783 26.808 9.22319 36.2722 16.137 41.1449C23.0509 46.0176 32.6166 44.5183 37.5415 37.6778C41.4246 32.3366 41.4246 25.1213 37.5415 19.8738L41.4246 16.0319C42.277 15.0949 42.1823 13.5019 41.1405 12.5648ZM25.0398 33.0863C22.672 33.0863 20.7778 31.2122 20.7778 28.8695C20.7778 26.5269 22.672 24.6528 25.0398 24.6528C27.4075 24.6528 29.3017 26.5269 29.3017 28.8695C29.3017 31.2122 27.4075 33.0863 25.0398 33.0863Z" fill="white"/>
</svg>
