<svg width="50" height="50" viewBox="0 0 50 50" fill="none" xmlns="http://www.w3.org/2000/svg">
<circle cx="25" cy="25" r="25" fill="#CC0033"/>
<path d="M39 20.0043V19.7597C39 19.5966 39 19.3519 39 19.1888C39 19.0258 39 18.8627 39 18.7811V18.5365C38.4235 12.0944 34.0588 6.79399 28.1294 5.32618C27.9647 5.24464 27.6353 5.16309 27.2235 5.16309C26.4824 5 25.7412 5 25 5C17.8353 5 11.8235 10.7897 11.0824 18.4549C11 18.9442 11 19.4335 11 19.9227V20.2489V40.5536C11.1647 42.0215 12.4 43.0815 13.8824 42.9185C15.3647 43 16.6 41.9399 16.7647 40.5536V19.2704C16.7647 19.1888 16.7647 19.1073 16.7647 19.0258V18.8627C17.0941 15.3562 19.0706 12.5021 21.8706 11.1974V40.4721C21.8706 41.1245 22.2 41.7768 22.6941 42.1845C23.2706 42.6738 24.0118 42.9185 24.7529 42.9185C26.2353 43 27.5529 41.9399 27.6353 40.4721V11.0343C30.6824 12.176 32.8235 15.1931 33.2353 18.8627C33.2353 19.1073 33.2353 19.3519 33.2353 19.5966C33.2353 19.7597 33.2353 19.9227 33.2353 20.0043V40.6352C33.2353 41.9399 34.5529 43 36.1176 43C37.6824 43 39 41.8584 39 40.5536V20.3305V20.0043Z" fill="white"/>
</svg>
