<svg width="50" height="50" viewBox="0 0 50 50" fill="none" xmlns="http://www.w3.org/2000/svg">
<circle cx="25" cy="25" r="25" fill="#CC0033"/>
<path d="M40.451 36.6925C39.5372 35.4708 37.7927 35.3079 36.5466 36.2038L36.2143 36.4481C33.4729 38.4843 30.0669 39.6245 26.661 39.6245C23.5873 39.6245 20.6797 38.8101 18.1045 37.1811C15.1139 35.3079 12.8709 32.6201 11.7079 29.6066L19.7659 22.3579L19.9321 25.4528C19.9321 26.023 20.1813 26.6745 20.5136 27.1632C21.012 27.8962 21.8428 28.4664 22.7566 28.6293C23.6703 28.7921 24.5841 28.6293 25.4149 28.1406L38.2911 19.833L38.6234 19.5887C39.8695 18.7742 40.2848 17.1453 39.4541 15.8422C38.6234 14.6205 36.9619 14.2132 35.6328 15.0277L35.4666 15.1091L25.1657 21.6249L24.9995 17.7154C24.9164 15.8422 23.255 14.3761 21.3443 14.4576C20.5136 14.4576 19.7659 14.7833 19.1844 15.3535L10.5449 23.1723C10.628 20.4846 11.3756 17.7154 12.954 15.272L13.0371 15.1906C13.8678 13.9689 13.5355 12.2585 12.2063 11.444C10.9603 10.6296 9.21574 10.9554 8.38501 12.2585L8.21887 12.5843C1.98843 22.5208 5.06211 35.5522 15.197 41.7421C18.686 43.8597 22.5904 45 26.661 45C31.3961 45 35.9651 43.4525 39.7033 40.6833L39.8695 40.5204C41.1156 39.5431 41.3648 37.8327 40.451 36.6925Z" fill="white"/>
</svg>
