<svg width="50" height="50" viewBox="0 0 50 50" fill="none" xmlns="http://www.w3.org/2000/svg">
<circle cx="25" cy="25" r="25" fill="#CC0033"/>
<path d="M40.9735 21.8287C40.9735 18.6293 40.1008 15.5268 38.3556 12.9092C36.3194 10.0976 33.5076 8.06161 30.211 6.99515C26.5265 5.73478 22.4542 5.63783 18.7698 6.8982C15.3762 7.96466 12.3705 10.0976 10.4313 13.0061C8.78297 15.6238 7.91034 18.6293 8.0073 21.7317C8.20122 25.5128 9.26777 29.197 11.11 32.3963C11.4009 32.6872 11.4978 32.9781 11.5948 33.3659C11.5948 33.5598 11.5948 33.8506 11.5948 34.0445C11.4978 34.8201 11.4009 35.5957 11.4978 36.3713C11.5948 37.05 11.8857 37.7287 12.3705 38.3104C12.7583 38.6982 13.2431 39.086 13.7279 39.2799C14.1157 39.4738 14.6005 39.4738 14.9884 39.4738H17.0245C17.0245 40.7341 17.0245 41.9945 17.0245 43.2549C17.0245 43.5457 17.0245 43.9335 17.1215 44.2244L17.3154 44.5152C17.6063 44.8061 17.8972 45 18.285 45H19.7394V39.9585C19.7394 39.7646 19.8363 39.5707 20.0303 39.4738C20.1272 39.3768 20.2242 39.3768 20.4181 39.3768C20.612 39.3768 20.709 39.4738 20.8059 39.5707C20.9029 39.6677 20.9999 39.8616 21.0968 40.0555V45H23.8117V40.0555C23.8117 39.8616 23.9086 39.6677 24.0056 39.5707C24.1026 39.4738 24.2965 39.3768 24.4904 39.3768C24.6843 39.3768 24.7813 39.4738 24.8782 39.5707C25.0721 39.6677 25.1691 39.8616 25.1691 40.0555V45H27.884V39.9585C27.884 39.7646 27.9809 39.6677 28.0779 39.4738C28.3688 39.3768 28.4657 39.3768 28.6596 39.3768C28.8536 39.3768 28.9505 39.4738 29.1444 39.5707C29.2414 39.6677 29.3384 39.8616 29.3384 40.0555V45H30.7927C30.9867 45 31.1806 44.903 31.2775 44.903C31.4715 44.8061 31.5684 44.7091 31.6654 44.6122C31.7623 44.5152 31.8593 44.4183 31.9563 44.2244C32.0532 44.0305 32.0532 43.8366 32.0532 43.6427C32.0532 43.3518 32.0532 43.061 32.0532 42.7701C32.0532 41.7037 32.0532 40.6372 32.0532 39.4738H34.1863C34.6711 39.4738 35.059 39.4738 35.4468 39.3768C36.5133 38.989 37.289 38.1165 37.4829 37.05C37.4829 36.9531 37.4829 36.7592 37.4829 36.6622C37.5799 34.8201 37.289 33.6567 38.4525 32.0085C40.2948 28.9061 41.1674 25.4159 40.9735 21.8287ZM17.3154 28.8092C14.8914 28.8092 12.9522 26.8701 12.9522 24.4464C12.9522 22.0226 14.8914 20.0836 17.3154 20.0836C19.7394 20.0836 21.6786 22.0226 21.6786 24.4464C21.7755 26.8701 19.7394 28.8092 17.3154 28.8092ZM26.0417 35.111H22.939C22.0664 35.014 21.4846 34.2384 21.5816 33.4628C21.5816 33.172 21.7755 32.8811 21.9694 32.5903L23.5208 30.6512C23.9086 30.0695 24.7813 29.9726 25.2661 30.3604C25.363 30.4573 25.46 30.5543 25.5569 30.6512L27.1083 32.5903C27.69 33.172 27.69 34.1415 27.0113 34.7232C26.8174 35.014 26.4296 35.111 26.0417 35.111ZM32.1502 28.8092C29.7262 28.8092 27.787 26.8701 27.787 24.4464C27.787 22.0226 29.7262 20.0836 32.1502 20.0836C34.5742 20.0836 36.5134 22.0226 36.5134 24.4464C36.5134 26.8701 34.5742 28.8092 32.1502 28.8092Z" fill="#FCFCFC"/>
</svg>
