<svg width="50" height="50" viewBox="0 0 50 50" fill="none" xmlns="http://www.w3.org/2000/svg">
<circle cx="25" cy="25" r="25" fill="#CC0033"/>
<path d="M39.2336 16.6561C38.6613 16.2739 37.9937 16.0828 37.2307 16.0828H26.3581V11.3057H36.0862C36.7539 11.3057 37.3261 10.7325 37.3261 10.0637V9.77708C37.3261 9.10829 36.7539 8.53504 36.0862 8.53504H26.4535V6.43312C26.4535 5.66879 25.7858 5 25.0228 5C24.2599 5 23.5922 5.66879 23.5922 6.43312V8.53504H13.9595C13.2918 8.53504 12.7196 9.10829 12.815 9.77708V10.0637C12.815 10.7325 13.2918 11.3057 13.9595 11.3057H23.5922V16.0828H12.815C10.7167 16.0828 9 17.8026 9 19.9045C9 20.5733 9.19075 21.2421 9.57224 21.9109L21.7801 42.1657C22.8292 43.981 25.2136 44.5542 27.0257 43.4077C27.5979 43.1211 27.9794 42.6434 28.2656 42.1657L40.4734 22.0064C41.5226 20.0956 40.9503 17.8026 39.2336 16.6561ZM25.0228 33.1848C22.6385 33.1848 20.731 31.2739 20.731 28.8854C20.731 26.4968 22.6385 24.586 25.0228 24.586C27.4072 24.586 29.3147 26.4968 29.3147 28.8854C29.3147 31.2739 27.4072 33.1848 25.0228 33.1848Z" fill="white"/>
</svg>
