<svg width="50" height="50" viewBox="0 0 50 50" fill="none" xmlns="http://www.w3.org/2000/svg">
<circle cx="25" cy="25" r="25" fill="#1F3860"/>
<path d="M25.0547 34.9523C22.8251 34.9523 21.0415 33.1686 21.0415 30.939C21.0415 30.8498 21.0415 30.8498 21.0415 30.7607C21.0415 28.5311 22.8251 26.7474 25.0547 26.7474C27.2843 26.7474 29.0679 28.5311 29.0679 30.7607C29.0679 30.8498 29.0679 30.8498 29.0679 30.939C29.0679 33.1686 27.2843 34.9523 25.0547 34.9523ZM45.9235 23.5368C46.1911 22.5558 45.7452 21.5748 44.7642 21.3073C44.4966 21.2181 44.2291 21.2181 43.9615 21.2181L5.61282 25.8556C4.63181 25.9448 3.91834 26.8366 4.00753 27.8176C4.00753 27.996 4.09671 28.1743 4.18589 28.3527L8.19913 37.6277C8.73422 38.9655 10.072 39.7681 11.4989 39.7681H38.1646C39.6807 39.7681 41.1077 38.7871 41.5536 37.271L45.9235 23.5368Z" fill="white"/>
<path d="M8.46661 17.5616V21.1289H14.5311V17.5616H8.46661ZM22.3792 21.7532V23.2693L28.7112 22.5558V21.664L22.3792 21.7532ZM15.1553 13.7267V17.0265H21.8441V13.7267H15.1553ZM21.7549 13.7267H21.9332H21.7549ZM15.1553 21.7532V24.0719L21.8441 23.3585V21.7532H15.1553ZM8.46661 21.7532V24.7854L14.5311 24.1611V21.7532H8.46661ZM15.1553 17.6507V21.2181H21.8441V17.6507H15.1553ZM15.1553 17.6507V21.2181H21.8441V17.6507H15.1553ZM15.1553 17.6507V21.2181H21.8441V17.6507H15.1553ZM15.1553 17.6507V21.2181H21.8441V17.6507H15.1553ZM15.1553 17.6507V21.2181H21.8441V17.6507H15.1553Z" fill="white"/>
<path d="M42.0887 9.71346C41.5536 9.17837 40.7509 9.17837 40.2158 9.71346L32.992 16.9373V10.3377C32.992 9.62428 32.3677 9 31.6543 9C30.9408 9 30.3165 9.62428 30.3165 10.3377V22.2883L32.992 22.0207V20.7722L42.1779 11.5863C42.6238 11.1404 42.6238 10.2486 42.0887 9.71346Z" fill="white"/>
</svg>
