<svg width="50" height="50" viewBox="0 0 50 50" fill="none" xmlns="http://www.w3.org/2000/svg">
<circle cx="25" cy="25" r="25" fill="#1F3860"/>
<path d="M27.4118 31.4029C25.2999 31.4029 23.6104 29.6737 23.6104 27.5122C23.6104 25.3507 25.2999 23.6215 27.4118 23.6215C29.5237 23.6215 31.2132 25.3507 31.2132 27.5122C31.2132 29.6737 29.5237 31.4029 27.4118 31.4029ZM12.6286 41H29.4392C31.0443 41 32.4803 39.7896 32.7338 38.1468L37.9712 9.00981C38.1402 8.05875 37.5489 7.19415 36.6196 7.02123C36.0283 6.93477 35.3525 7.10769 35.0146 7.62645L11.3615 38.2333C10.7702 39.0114 10.9391 40.0489 11.6149 40.6542C11.8684 40.8271 12.2063 41 12.6286 41Z" fill="white"/>
</svg>
