<svg width="50" height="50" viewBox="0 0 50 50" fill="none" xmlns="http://www.w3.org/2000/svg">
<circle cx="25" cy="25" r="25" fill="#CC0033"/>
<path d="M25 5C13.9498 5 5 13.9294 5 24.9544C5 35.9795 13.9498 45 25 45C36.0502 45 45 36.0706 45 25.0456C45 13.9294 36.0502 5 25 5ZM42.6256 24.9544H26.2785C26.2785 24.2255 25.7306 23.6788 25 23.6788V7.36902C34.6804 7.36902 42.6256 15.2961 42.6256 24.9544ZM7.2831 24.9544H23.7215C23.7215 25.6834 24.2694 26.2301 25 26.2301V42.631C15.2283 42.631 7.2831 34.7039 7.2831 24.9544Z" fill="white"/>
</svg>
