<svg width="50" height="50" viewBox="0 0 50 50" fill="none" xmlns="http://www.w3.org/2000/svg">
<circle cx="25" cy="25" r="25" fill="#CC0033"/>
<path d="M24.9553 35.367C22.6301 35.367 20.7698 33.5053 20.7698 31.1782C20.7698 28.8511 22.6301 26.9894 24.9553 26.9894C27.2806 26.9894 29.1408 28.8511 29.1408 31.1782C29.1408 33.5053 27.2806 35.367 24.9553 35.367ZM14.6311 43H35.2796C37.3258 43 39 41.3245 39 39.2766V9.8617C39 8.83777 38.1629 8 37.1398 8C36.5817 8 36.0237 8.27926 35.6516 8.6516L25.6994 21.125C25.4204 21.4973 24.7693 21.5904 24.3973 21.3112C24.3043 21.3112 24.3043 21.2181 24.2113 21.125L14.2591 8.74468C13.608 7.90692 12.4919 7.81383 11.6548 8.46543C11.1897 8.83777 11.0037 9.39628 11.0037 9.95479V39.3697C10.9107 41.3245 12.5849 43 14.6311 43Z" fill="white"/>
</svg>
