<svg width="50" height="50" viewBox="0 0 50 50" fill="none" xmlns="http://www.w3.org/2000/svg">
<circle cx="25" cy="25" r="25" fill="#CC0033"/>
<path d="M24.9376 7C26.5187 7 27.8502 8.33148 27.8502 9.91262V42.2843H22.025V9.91262C22.025 8.33148 23.3564 7 24.9376 7Z" fill="white"/>
<path d="M10.8738 9.24689C12.0388 8.08185 13.8696 8.08185 14.9515 9.24689L28.0166 22.3121L23.939 26.3897L10.8738 13.3246C9.70874 12.2427 9.70874 10.3287 10.8738 9.24689Z" fill="white"/>
<path d="M39.0845 9.24689C40.2496 10.4119 40.2496 12.2427 39.0845 13.3246L26.0193 26.3897L21.9417 22.3121L34.9236 9.24689C36.0887 8.08185 37.9195 8.08185 39.0845 9.24689Z" fill="white"/>
<path d="M10.3745 39.6213V39.122C10.3745 37.6241 11.5396 36.459 13.0375 36.459H37.3371C38.835 36.459 40 37.6241 40 39.122V39.6213C40 41.1192 38.835 42.2843 37.3371 42.2843H12.9543C11.5396 42.2011 10.3745 41.036 10.3745 39.6213Z" fill="white"/>
</svg>
