<svg width="50" height="50" viewBox="0 0 50 50" fill="none" xmlns="http://www.w3.org/2000/svg">
<circle cx="25" cy="25" r="25" fill="#CC0033"/>
<path d="M40.2562 20.7881H9.74384C7.68473 20.7881 6 22.4729 6 24.532V34.6404C6 36.6995 7.68473 38.3842 9.74384 38.3842H40.2562C42.3153 38.3842 44 36.6995 44 34.6404V24.532C44 22.4729 42.3153 20.7881 40.2562 20.7881ZM28.1823 32.2069C28.0887 32.3941 27.9951 32.4877 27.8079 32.5812C23.3153 35.6699 18.4483 30.7093 21.8177 26.2167C26.3103 22.9409 31.2709 27.8079 28.1823 32.2069Z" fill="white"/>
<path d="M19.3842 14.8916C19.3842 15.6404 19.7586 16.202 20.3202 16.4828C20.8818 16.7635 21.5369 16.67 22.0985 16.202L24.7192 13.9557V20.2266H27.1527V12.1773C27.1527 11.4286 26.7783 10.867 26.2167 10.5862C25.6552 10.3054 25 10.4926 24.4384 10.9606L21.8177 13.2069V7.21675C21.8177 6.56158 21.2561 6 20.601 6C19.9458 6 19.3842 6.56158 19.3842 7.21675V7.59113V14.8916Z" fill="white"/>
</svg>
