<svg width="50" height="50" viewBox="0 0 50 50" fill="none" xmlns="http://www.w3.org/2000/svg">
<circle cx="25" cy="25" r="25" fill="#CC0033"/>
<path d="M25.0738 33.4045C22.8348 33.4045 21.0436 31.6133 21.0436 29.3744C21.0436 29.2848 21.0436 29.2848 21.0436 29.1952C21.0436 26.9563 22.8348 25.1651 25.0738 25.1651C27.3127 25.1651 29.1039 26.9563 29.1039 29.1952C29.1039 29.2848 29.1039 29.2848 29.1039 29.3744C29.1039 31.6133 27.3127 33.4045 25.0738 33.4045ZM46.0304 21.941C46.2991 21.0454 45.8513 19.9707 44.8662 19.702C44.5975 19.6125 44.3288 19.6125 44.0602 19.6125L5.55002 24.18C4.56488 24.2695 3.84841 25.1651 4.02753 26.1503C4.02753 26.3294 4.11709 26.5085 4.11709 26.598L8.14722 35.9121C8.68457 37.2555 10.0279 38.0615 11.4609 38.0615H38.2389C39.7613 38.0615 41.1943 37.0764 41.6421 35.5539L46.0304 21.941Z" fill="white"/>
<path d="M8.41589 15.9406V19.5229H14.5059V15.9406H8.41589ZM22.387 20.0603V21.5828L28.7457 20.8663V19.9707L22.387 20.0603ZM15.1328 12V15.3137H21.8497V12H15.1328ZM21.7601 12H21.9392H21.7601ZM15.1328 20.1498V22.3888L21.8497 21.6723V20.0603L15.1328 20.1498ZM8.41589 20.1498V23.1052L14.5059 22.4783V20.0603L8.41589 20.1498ZM15.1328 15.9406V19.5229H21.8497V15.9406H15.1328ZM15.1328 15.9406V19.5229H21.8497V15.9406H15.1328ZM15.1328 15.9406V19.5229H21.8497V15.9406H15.1328ZM15.1328 15.9406V19.5229H21.8497V15.9406H15.1328ZM15.1328 15.9406V19.5229H21.8497V15.9406H15.1328Z" fill="white"/>
</svg>
