<svg width="50" height="50" viewBox="0 0 50 50" fill="none" xmlns="http://www.w3.org/2000/svg">
<circle cx="25" cy="25" r="25" fill="#CC0033"/>
<path d="M12 16.0118C12 14.3176 12.5647 12.6235 13.6 10.9294C14.6353 9.23529 16.2353 7.82353 18.3059 6.69412C20.3765 5.56471 22.8235 5 25.5529 5C28.0941 5 30.3529 5.47059 32.3294 6.41176C34.3059 7.35294 35.8118 8.67059 36.8471 10.2706C37.8824 11.8706 38.4471 13.6588 38.4471 15.5412C38.4471 17.0471 38.1647 18.3647 37.5059 19.4941C36.9412 20.6235 36.1882 21.5647 35.3412 22.4118C34.4941 23.2588 32.9882 24.5765 30.8235 26.5529C30.2588 27.1176 29.7882 27.5882 29.4118 27.9647C29.0353 28.3412 28.7529 28.7176 28.5647 29.0941C28.3765 29.4706 28.2824 29.7529 28.1882 30.1294C28.0941 30.5059 27.9059 31.0706 27.7176 31.9176C27.3412 33.8 26.3059 34.6471 24.6118 34.6471C23.6706 34.6471 22.9176 34.3647 22.2588 33.7059C21.6 33.1412 21.3176 32.2 21.3176 31.0706C21.3176 29.5647 21.5059 28.3412 21.9765 27.2118C22.4471 26.0824 23.0118 25.1412 23.7647 24.3882C24.5176 23.5412 25.5529 22.6 26.8706 21.4706C28 20.4353 28.8471 19.7765 29.3176 19.2118C29.7882 18.7412 30.2588 18.1765 30.6353 17.5176C31.0118 16.8588 31.1059 16.2 31.1059 15.5412C31.1059 14.1294 30.5412 12.9059 29.5059 11.9647C28.4706 11.0235 27.0588 10.5529 25.4588 10.5529C23.4824 10.5529 22.0706 11.0235 21.1294 12.0588C20.1882 13 19.4353 14.5059 18.7765 16.3882C18.2118 18.3647 17.0824 19.4 15.3882 19.4C14.3529 19.4 13.6 19.0235 12.8471 18.3647C12.3765 17.5176 12 16.7647 12 16.0118ZM24.9882 45C23.9529 45 23.0118 44.6235 22.1647 43.9647C21.3176 43.3059 20.9412 42.2706 20.9412 41.0471C20.9412 39.9176 21.3176 38.9765 22.0706 38.2235C22.8235 37.4706 23.7647 37.0941 24.8941 37.0941C26.0235 37.0941 26.9647 37.4706 27.7176 38.2235C28.4706 38.9765 28.8471 39.9176 28.8471 41.0471C28.8471 42.2706 28.4706 43.2118 27.6235 43.9647C26.8706 44.6235 26.0235 45 24.9882 45Z" fill="white"/>
</svg>
