<svg width="50" height="50" viewBox="0 0 50 50" fill="none" xmlns="http://www.w3.org/2000/svg">
<path d="M0.5 8.5C0.5 8.22386 0.723858 8 1 8H49C49.2761 8 49.5 8.22386 49.5 8.5V41.5C49.5 41.7761 49.2761 42 49 42H1C0.723857 42 0.5 41.7761 0.5 41.5V8.5Z" fill="#1F3860"/>
<path fill-rule="evenodd" clip-rule="evenodd" d="M47 11C47 10.7239 46.7761 10.5 46.5 10.5H3.5C3.22386 10.5 3 10.7239 3 11V39C3 39.2761 3.22386 39.5 3.5 39.5H46.5C46.7761 39.5 47 39.2761 47 39V11ZM1 8C0.723858 8 0.5 8.22386 0.5 8.5V41.5C0.5 41.7761 0.723857 42 1 42H49C49.2761 42 49.5 41.7761 49.5 41.5V8.5C49.5 8.22386 49.2761 8 49 8H1Z" fill="white"/>
<path fill-rule="evenodd" clip-rule="evenodd" d="M3.18532 38.8968C3.18498 38.8978 3.18465 38.8988 3.18431 38.8998L3.18427 38.8999M3.18433 38.8997L3.1849 38.898L3.18532 38.8968M1.99997 38.5C0.814119 38.1047 0.81441 38.1038 0.814717 38.1029L0.815411 38.1008L0.817089 38.0958L0.82162 38.0826L0.835496 38.0433C0.84693 38.0114 0.862794 37.9684 0.883437 37.9149C0.924717 37.808 0.985151 37.6593 1.06754 37.4748C1.23224 37.1058 1.48512 36.5928 1.84867 35.984C2.57572 34.7667 3.7477 33.1629 5.54452 31.5657C9.16099 28.3511 15.2112 25.25 25 25.25C34.7887 25.25 40.839 28.3511 44.4554 31.5657C46.2522 33.1629 47.4242 34.7667 48.1513 35.984C48.5148 36.5928 48.7677 37.1058 48.9324 37.4748C49.0148 37.6593 49.0752 37.808 49.1165 37.9149C49.1372 37.9684 49.153 38.0114 49.1645 38.0433L49.1783 38.0826L49.1829 38.0958L49.1845 38.1008L49.1852 38.1029C49.1855 38.1038 49.1858 38.1047 48 38.5L49.1858 38.1047C49.4041 38.7596 49.0502 39.4675 48.3953 39.6858C47.7419 39.9036 47.0357 39.5518 46.8157 38.8998C46.8156 38.8998 46.8156 38.8998 46.8156 38.8997C46.8156 38.8995 46.8155 38.8993 46.8154 38.8991C46.8152 38.8983 46.8149 38.8976 46.8146 38.8968L46.8114 38.8878C46.8065 38.8742 46.7976 38.8499 46.7843 38.8154C46.7577 38.7466 46.7137 38.6375 46.6496 38.4939C46.5213 38.2066 46.3132 37.7821 46.0049 37.2659C45.3882 36.2333 44.3727 34.8371 42.7945 33.4342C39.661 30.6489 34.2112 27.75 25 27.75C15.7887 27.75 10.339 30.6489 7.20543 33.4342C5.62725 34.8371 4.61173 36.2333 3.99503 37.2659C3.6867 37.7821 3.47864 38.2066 3.35038 38.4939C3.28628 38.6375 3.24222 38.7466 3.21563 38.8154C3.20234 38.8499 3.19342 38.8742 3.18856 38.8878L3.18433 38.8997L3.18431 38.8998C2.96424 39.5518 2.2581 39.9036 1.60469 39.6858C0.949758 39.4675 0.595809 38.7596 0.814119 38.1047L1.99997 38.5Z" fill="white"/>
</svg>
