<svg width="50" height="50" viewBox="0 0 50 50" fill="none" xmlns="http://www.w3.org/2000/svg">
<g clip-path="url(#clip0_609_631)">
<path d="M24.7473 1.50018C16.1538 1.50018 2 17.1248 2 49.1301L48 49.1301C48 17.1248 33.3407 1.50018 24.7473 1.50018Z" fill="#1F3860"/>
<path fill-rule="evenodd" clip-rule="evenodd" d="M2 49.25C2.69036 49.25 3.25 48.6904 3.25 48C3.25 32.1752 6.74958 20.7853 11.2206 13.3951C15.7372 5.92952 21.0916 2.75003 24.7473 2.75003C28.4134 2.75003 33.8943 5.94249 38.5345 13.4079C43.1276 20.7975 46.75 32.1833 46.75 48C46.75 48.6904 47.3096 49.25 48 49.25C48.6904 49.25 49.25 48.6904 49.25 48C49.25 31.8114 45.5427 19.9472 40.6578 12.0881C35.82 4.30488 29.6745 0.250031 24.7473 0.250031C19.8095 0.250031 13.7903 4.31786 9.08159 12.101C4.32734 19.9594 0.75 31.8194 0.75 48C0.75 48.6904 1.30964 49.25 2 49.25Z" fill="white"/>
<path d="M24.256 35.1439C23.596 35.1439 22.93 35.1199 22.258 35.0719C21.586 35.0359 20.998 34.9519 20.494 34.8199V22.7059C20.758 22.6579 21.04 22.6159 21.34 22.5799C21.64 22.5319 21.946 22.4959 22.258 22.4719C22.57 22.4479 22.876 22.4299 23.176 22.4179C23.488 22.4059 23.782 22.3999 24.058 22.3999C24.814 22.3999 25.516 22.4599 26.164 22.5799C26.812 22.6879 27.37 22.8739 27.838 23.1379C28.318 23.4019 28.69 23.7499 28.954 24.1819C29.218 24.6139 29.35 25.1479 29.35 25.7839C29.35 26.3719 29.206 26.8759 28.918 27.2959C28.642 27.7159 28.252 28.0519 27.748 28.3039C28.504 28.5559 29.062 28.9279 29.422 29.4199C29.782 29.9119 29.962 30.5359 29.962 31.2919C29.962 32.5759 29.494 33.5419 28.558 34.1899C27.622 34.8259 26.188 35.1439 24.256 35.1439ZM22.726 29.3839V33.1819C22.978 33.2059 23.248 33.2239 23.536 33.2359C23.824 33.2479 24.088 33.2539 24.328 33.2539C24.796 33.2539 25.228 33.2239 25.624 33.1639C26.032 33.1039 26.38 33.0019 26.668 32.8579C26.968 32.7019 27.202 32.4979 27.37 32.2459C27.55 31.9939 27.64 31.6699 27.64 31.2739C27.64 30.5659 27.382 30.0739 26.866 29.7979C26.35 29.5219 25.636 29.3839 24.724 29.3839H22.726ZM22.726 27.6019H24.328C25.192 27.6019 25.87 27.4819 26.362 27.2419C26.854 26.9899 27.1 26.5459 27.1 25.9099C27.1 25.3099 26.842 24.8839 26.326 24.6319C25.822 24.3799 25.162 24.2539 24.346 24.2539C23.998 24.2539 23.686 24.2599 23.41 24.2719C23.146 24.2839 22.918 24.3019 22.726 24.3259V27.6019Z" fill="white"/>
</g>
<defs>
<clipPath id="clip0_609_631">
<rect width="50" height="50" fill="white"/>
</clipPath>
</defs>
</svg>
