<svg width="50" height="50" viewBox="0 0 50 50" fill="none" xmlns="http://www.w3.org/2000/svg">
<path d="M0.5 8.5C0.5 8.22386 0.723858 8 1 8H49C49.2761 8 49.5 8.22386 49.5 8.5V41.5C49.5 41.7761 49.2761 42 49 42H1C0.723857 42 0.5 41.7761 0.5 41.5V8.5Z" fill="#1F3860"/>
<path fill-rule="evenodd" clip-rule="evenodd" d="M47 10.5H3V39.5H47V10.5ZM0.5 8V42H49.5V8H0.5Z" fill="white"/>
<path fill-rule="evenodd" clip-rule="evenodd" d="M49.047 9.31719C48.6699 8.73894 47.8954 8.57589 47.3171 8.95301L1.31714 38.953C0.738892 39.3301 0.575844 40.1046 0.952965 40.6829C1.33008 41.2611 2.10456 41.4242 2.68281 41.047L48.6828 11.047C49.2611 10.6699 49.4241 9.89544 49.047 9.31719Z" fill="white"/>
<path fill-rule="evenodd" clip-rule="evenodd" d="M0.952979 9.31719C1.3301 8.73894 2.10458 8.57589 2.68283 8.95301L48.6828 38.953C49.2611 39.3301 49.4241 40.1046 49.047 40.6829C48.6699 41.2611 47.8954 41.4242 47.3172 41.047L1.31716 11.047C0.738908 10.6699 0.57586 9.89544 0.952979 9.31719Z" fill="white"/>
<path fill-rule="evenodd" clip-rule="evenodd" d="M9.75 25C9.75 20.4437 13.4437 16.75 18 16.75H32C36.5563 16.75 40.25 20.4437 40.25 25C40.25 29.5563 36.5563 33.25 32 33.25H18C13.4437 33.25 9.75 29.5563 9.75 25ZM18 19.25C14.8244 19.25 12.25 21.8244 12.25 25C12.25 28.1756 14.8244 30.75 18 30.75H32C35.1756 30.75 37.75 28.1756 37.75 25C37.75 21.8244 35.1756 19.25 32 19.25H18Z" fill="white"/>
</svg>
