<svg width="50" height="50" viewBox="0 0 50 50" fill="none" xmlns="http://www.w3.org/2000/svg">
<path d="M24.8944 4.14049C17.054 4.14049 4.14047 18.3959 4.14047 47.5967L46.1095 47.5967C46.1095 18.3959 32.7348 4.14049 24.8944 4.14049Z" fill="#1F3860"/>
<path fill-rule="evenodd" clip-rule="evenodd" d="M4.14046 47.7061C4.77032 47.7061 5.28093 47.1955 5.28093 46.5656C5.28093 32.1275 8.47385 21.7357 12.5531 14.993C16.6739 8.18169 21.5591 5.28082 24.8944 5.28082C28.2393 5.28082 33.2399 8.19353 37.4735 15.0047C41.6641 21.7468 44.9691 32.1349 44.9691 46.5656C44.9691 47.1955 45.4797 47.7061 46.1095 47.7061C46.7394 47.7061 47.25 47.1955 47.25 46.5656C47.25 31.7955 43.8676 20.971 39.4107 13.8006C34.9968 6.69943 29.3899 2.9999 24.8944 2.9999C20.3893 2.9999 14.8976 6.71126 10.6015 13.8124C6.26386 20.9821 3 31.8029 3 46.5656C3 47.1955 3.5106 47.7061 4.14046 47.7061Z" fill="white"/>
<path d="M20.494 34.9999V22.5259H28.378V24.4519H22.762V27.6379H27.748V29.5639H22.762V34.9999H20.494Z" fill="white"/>
</svg>
