<svg width="50" height="50" viewBox="0 0 50 50" fill="none" xmlns="http://www.w3.org/2000/svg">
<path d="M24.8944 4.14049C17.054 4.14049 4.14047 18.3959 4.14047 47.5967L46.1095 47.5967C46.1095 18.3959 32.7348 4.14049 24.8944 4.14049Z" fill="#1F3860"/>
<path fill-rule="evenodd" clip-rule="evenodd" d="M4.14046 47.7061C4.77032 47.7061 5.28093 47.1955 5.28093 46.5656C5.28093 32.1275 8.47385 21.7357 12.5531 14.993C16.6739 8.18169 21.5591 5.28082 24.8944 5.28082C28.2393 5.28082 33.2399 8.19353 37.4735 15.0047C41.6641 21.7468 44.9691 32.1349 44.9691 46.5656C44.9691 47.1955 45.4797 47.7061 46.1095 47.7061C46.7394 47.7061 47.25 47.1955 47.25 46.5656C47.25 31.7955 43.8676 20.971 39.4107 13.8006C34.9968 6.69943 29.3899 2.9999 24.8944 2.9999C20.3893 2.9999 14.8976 6.71126 10.6015 13.8124C6.26386 20.9821 3 31.8029 3 46.5656C3 47.1955 3.5106 47.7061 4.14046 47.7061Z" fill="white"/>
<path d="M24.256 35.1439C23.596 35.1439 22.93 35.1199 22.258 35.0719C21.586 35.0359 20.998 34.9519 20.494 34.8199V22.7059C20.758 22.6579 21.04 22.6159 21.34 22.5799C21.64 22.5319 21.946 22.4959 22.258 22.4719C22.57 22.4479 22.876 22.4299 23.176 22.4179C23.488 22.4059 23.782 22.3999 24.058 22.3999C24.814 22.3999 25.516 22.4599 26.164 22.5799C26.812 22.6879 27.37 22.8739 27.838 23.1379C28.318 23.4019 28.69 23.7499 28.954 24.1819C29.218 24.6139 29.35 25.1479 29.35 25.7839C29.35 26.3719 29.206 26.8759 28.918 27.2959C28.642 27.7159 28.252 28.0519 27.748 28.3039C28.504 28.5559 29.062 28.9279 29.422 29.4199C29.782 29.9119 29.962 30.5359 29.962 31.2919C29.962 32.5759 29.494 33.5419 28.558 34.1899C27.622 34.8259 26.188 35.1439 24.256 35.1439ZM22.726 29.3839V33.1819C22.978 33.2059 23.248 33.2239 23.536 33.2359C23.824 33.2479 24.088 33.2539 24.328 33.2539C24.796 33.2539 25.228 33.2239 25.624 33.1639C26.032 33.1039 26.38 33.0019 26.668 32.8579C26.968 32.7019 27.202 32.4979 27.37 32.2459C27.55 31.9939 27.64 31.6699 27.64 31.2739C27.64 30.5659 27.382 30.0739 26.866 29.7979C26.35 29.5219 25.636 29.3839 24.724 29.3839H22.726ZM22.726 27.6019H24.328C25.192 27.6019 25.87 27.4819 26.362 27.2419C26.854 26.9899 27.1 26.5459 27.1 25.9099C27.1 25.3099 26.842 24.8839 26.326 24.6319C25.822 24.3799 25.162 24.2539 24.346 24.2539C23.998 24.2539 23.686 24.2599 23.41 24.2719C23.146 24.2839 22.918 24.3019 22.726 24.3259V27.6019Z" fill="white"/>
</svg>
