<svg width="50" height="50" viewBox="0 0 50 50" fill="none" xmlns="http://www.w3.org/2000/svg">
<path d="M24.8944 46.5656C17.054 46.5656 4.14047 32.3101 4.14047 3.10938L46.1095 3.10938C46.1095 32.3101 32.7348 46.5656 24.8944 46.5656Z" fill="#1F3860"/>
<path fill-rule="evenodd" clip-rule="evenodd" d="M4.14046 3C4.77032 3 5.28093 3.5106 5.28093 4.14046C5.28093 18.5785 8.47385 28.9704 12.5531 35.713C16.6739 42.5244 21.5591 45.4252 24.8944 45.4252C28.2393 45.4252 33.2399 42.5125 37.4735 35.7013C41.6641 28.9592 44.9691 18.5712 44.9691 4.14046C44.9691 3.5106 45.4797 3 46.1095 3C46.7394 3 47.25 3.5106 47.25 4.14046C47.25 18.9105 43.8676 29.7351 39.4107 36.9054C34.9968 44.0066 29.3899 47.7062 24.8944 47.7062C20.3893 47.7062 14.8976 43.9948 10.6015 36.8937C6.26386 29.7239 3 18.9031 3 4.14046C3 3.5106 3.5106 3 4.14046 3Z" fill="white"/>
<path d="M17.1163 14.2845C17.288 14.1029 17.5269 14 17.7769 14H32.9937C33.2437 14 33.4826 14.1029 33.6543 14.2845L37.5221 18.3754C37.8534 18.7259 37.8534 19.2741 37.5221 19.6246L33.6543 23.7155C33.4826 23.8971 33.2437 24 32.9937 24H17.7769C17.5269 24 17.288 23.8971 17.1163 23.7155L13.2485 19.6246C12.9172 19.2741 12.9172 18.7259 13.2485 18.3754L17.1163 14.2845Z" fill="white"/>
</svg>
