<svg width="50" height="50" viewBox="0 0 50 50" fill="none" xmlns="http://www.w3.org/2000/svg">
<path d="M24.7473 48.78C16.1538 48.78 2 33.1554 2 1.15002L48 1.15003C48 33.1554 33.3407 48.78 24.7473 48.78Z" fill="#1F3860"/>
<path fill-rule="evenodd" clip-rule="evenodd" d="M2 1C2.69036 1 3.25 1.55964 3.25 2.25C3.25 18.0748 6.74958 29.4647 11.2206 36.8549C15.7372 44.3205 21.0916 47.5 24.7473 47.5C28.4134 47.5 33.8943 44.3075 38.5345 36.8421C43.1276 29.4525 46.75 18.0667 46.75 2.25C46.75 1.55964 47.3096 1 48 1C48.6904 1 49.25 1.55964 49.25 2.25C49.25 18.4386 45.5427 30.3028 40.6578 38.1619C35.82 45.9451 29.6745 50 24.7473 50C19.8095 50 13.7903 45.9321 9.08159 38.149C4.32734 30.2906 0.75 18.4306 0.75 2.25C0.75 1.55964 1.30964 1 2 1Z" fill="white"/>
<path d="M15.9041 14.313C16.093 14.1132 16.3558 14 16.6307 14H33.3693C33.6442 14 33.907 14.1132 34.0959 14.313L38.3505 18.813C38.7149 19.1985 38.7149 19.8015 38.3505 20.187L34.0959 24.687C33.907 24.8868 33.6442 25 33.3693 25H16.6307C16.3558 25 16.093 24.8868 15.9041 24.687L11.6495 20.187C11.2851 19.8015 11.2851 19.1985 11.6495 18.813L15.9041 14.313Z" fill="white"/>
</svg>
