<svg width="50" height="50" viewBox="0 0 50 50" fill="none" xmlns="http://www.w3.org/2000/svg">
<path d="M24.8944 4.14049C17.054 4.14049 4.14044 18.3959 4.14044 47.5967L46.1095 47.5967C46.1095 18.3959 32.7348 4.14049 24.8944 4.14049Z" fill="#1F3860"/>
<path fill-rule="evenodd" clip-rule="evenodd" d="M4.14046 47.7061C4.77032 47.7061 5.28093 47.1955 5.28093 46.5656C5.28093 32.1275 8.47385 21.7357 12.5531 14.993C16.6739 8.18169 21.5591 5.28082 24.8944 5.28082C28.2393 5.28082 33.2399 8.19353 37.4735 15.0047C41.6641 21.7468 44.9691 32.1349 44.9691 46.5656C44.9691 47.1955 45.4797 47.7061 46.1095 47.7061C46.7394 47.7061 47.25 47.1955 47.25 46.5656C47.25 31.7955 43.8676 20.971 39.4107 13.8006C34.9968 6.69943 29.3899 2.9999 24.8944 2.9999C20.3893 2.9999 14.8976 6.71126 10.6015 13.8124C6.26386 20.9821 3 31.8029 3 46.5656C3 47.1955 3.5106 47.7061 4.14046 47.7061Z" fill="white"/>
<path d="M25 35.2699C24.148 35.2699 23.416 35.1499 22.804 34.9099C22.192 34.6579 21.682 34.3099 21.274 33.8659C20.878 33.4219 20.584 32.8999 20.392 32.2999C20.2 31.6999 20.104 31.0399 20.104 30.3199V22.5259H22.39V30.1039C22.39 30.6679 22.45 31.1539 22.57 31.5619C22.702 31.9579 22.882 32.2819 23.11 32.5339C23.35 32.7859 23.626 32.9719 23.938 33.0919C24.262 33.2119 24.622 33.2719 25.018 33.2719C25.414 33.2719 25.774 33.2119 26.098 33.0919C26.422 32.9719 26.698 32.7859 26.926 32.5339C27.166 32.2819 27.346 31.9579 27.466 31.5619C27.598 31.1539 27.664 30.6679 27.664 30.1039V22.5259H29.95V30.3199C29.95 31.0399 29.848 31.6999 29.644 32.2999C29.452 32.8999 29.152 33.4219 28.744 33.8659C28.348 34.3099 27.838 34.6579 27.214 34.9099C26.59 35.1499 25.852 35.2699 25 35.2699Z" fill="white"/>
</svg>
