<svg width="50" height="50" viewBox="0 0 50 50" fill="none" xmlns="http://www.w3.org/2000/svg">
<path d="M0.5 8.5C0.5 8.22386 0.723858 8 1 8H49C49.2761 8 49.5 8.22386 49.5 8.5V41.5C49.5 41.7761 49.2761 42 49 42H1C0.723857 42 0.5 41.7761 0.5 41.5V8.5Z" fill="#1F3860"/>
<path fill-rule="evenodd" clip-rule="evenodd" d="M47 11C47 10.7239 46.7761 10.5 46.5 10.5H3.5C3.22386 10.5 3 10.7239 3 11V39C3 39.2761 3.22386 39.5 3.5 39.5H46.5C46.7761 39.5 47 39.2761 47 39V11ZM1 8C0.723858 8 0.5 8.22386 0.5 8.5V41.5C0.5 41.7761 0.723857 42 1 42H49C49.2761 42 49.5 41.7761 49.5 41.5V8.5C49.5 8.22386 49.2761 8 49 8H1Z" fill="white"/>
<path fill-rule="evenodd" clip-rule="evenodd" d="M3.18535 38.8968C3.18501 38.8978 3.18468 38.8988 3.18434 38.8998L3.1843 38.8999M3.18436 38.8997L3.18493 38.898L3.18535 38.8968M2 38.5C0.81415 38.1047 0.814441 38.1038 0.814748 38.1029L0.815442 38.1008L0.81712 38.0958L0.82165 38.0826L0.835526 38.0433C0.84696 38.0114 0.862825 37.9684 0.883468 37.9149C0.924747 37.808 0.985181 37.6593 1.06757 37.4748C1.23227 37.1058 1.48515 36.5928 1.8487 35.984C2.57575 34.7667 3.74773 33.1629 5.54455 31.5657C9.16102 28.3511 15.2112 25.25 25 25.25C34.7888 25.25 40.839 28.3511 44.4555 31.5657C46.2523 33.1629 47.4243 34.7667 48.1513 35.984C48.5149 36.5928 48.7677 37.1058 48.9324 37.4748C49.0148 37.6593 49.0753 37.808 49.1165 37.9149C49.1372 37.9684 49.153 38.0114 49.1645 38.0433L49.1784 38.0826L49.1829 38.0958L49.1846 38.1008L49.1853 38.1029C49.1856 38.1038 49.1859 38.1047 48 38.5L49.1859 38.1047C49.4042 38.7596 49.0502 39.4675 48.3953 39.6858C47.7419 39.9036 47.0358 39.5518 46.8157 38.8998C46.8157 38.8998 46.8157 38.8998 46.8157 38.8997C46.8156 38.8995 46.8155 38.8993 46.8155 38.8991C46.8152 38.8983 46.8149 38.8976 46.8147 38.8968L46.8114 38.8878C46.8066 38.8742 46.7976 38.8499 46.7843 38.8154C46.7578 38.7466 46.7137 38.6375 46.6496 38.4939C46.5213 38.2066 46.3133 37.7821 46.005 37.2659C45.3883 36.2333 44.3727 34.8371 42.7946 33.4342C39.661 30.6489 34.2112 27.75 25 27.75C15.7888 27.75 10.339 30.6489 7.20546 33.4342C5.62728 34.8371 4.61176 36.2333 3.99506 37.2659C3.68673 37.7821 3.47867 38.2066 3.35041 38.4939C3.28631 38.6375 3.24225 38.7466 3.21566 38.8154C3.20237 38.8499 3.19345 38.8742 3.18859 38.8878L3.18436 38.8997L3.18434 38.8998C2.96428 39.5518 2.25813 39.9036 1.60472 39.6858C0.949789 39.4675 0.595839 38.7596 0.81415 38.1047L2 38.5Z" fill="white"/>
</svg>
