<svg width="50" height="50" viewBox="0 0 50 50" fill="none" xmlns="http://www.w3.org/2000/svg">
<path d="M0.5 8.5C0.5 8.22386 0.723858 8 1 8H49C49.2761 8 49.5 8.22386 49.5 8.5V41.5C49.5 41.7761 49.2761 42 49 42H1C0.723857 42 0.5 41.7761 0.5 41.5V8.5Z" fill="#1F3860"/>
<path fill-rule="evenodd" clip-rule="evenodd" d="M47 11C47 10.7239 46.7761 10.5 46.5 10.5H3.5C3.22386 10.5 3 10.7239 3 11V39C3 39.2761 3.22386 39.5 3.5 39.5H46.5C46.7761 39.5 47 39.2761 47 39V11ZM1 8C0.723858 8 0.5 8.22386 0.5 8.5V41.5C0.5 41.7761 0.723857 42 1 42H49C49.2761 42 49.5 41.7761 49.5 41.5V8.5C49.5 8.22386 49.2761 8 49 8H1Z" fill="white"/>
<path fill-rule="evenodd" clip-rule="evenodd" d="M20.7505 20.5078L20.75 20.5235V33.3871C20.75 34.0775 20.1904 34.6371 19.5 34.6371C18.8096 34.6371 18.25 34.0775 18.25 33.3871V20.5161H19.5C18.25 20.5161 18.25 20.5154 18.25 20.5147L18.25 20.5132L18.25 20.5097L18.2501 20.5015L18.2504 20.4795C18.2507 20.4624 18.2512 20.4406 18.2522 20.4144C18.2542 20.3619 18.2579 20.2915 18.2647 20.2056C18.2785 20.0343 18.3051 19.7989 18.3572 19.5203C18.4604 18.9682 18.6689 18.2168 19.0973 17.4531C19.5297 16.6819 20.1895 15.8942 21.1817 15.3045C22.1752 14.714 23.4337 14.3629 25 14.3629C26.5663 14.3629 27.8248 14.714 28.8183 15.3045C29.8104 15.8941 30.4702 16.6819 30.9027 17.453C31.7465 18.9574 31.75 20.4402 31.75 20.5161V33.3871C31.75 34.0775 31.1904 34.6371 30.5 34.6371C29.8096 34.6371 29.25 34.0775 29.25 33.3871V20.5194C29.25 20.52 29.25 20.5203 29.25 20.5203C29.2495 20.5203 29.2338 19.5881 28.7223 18.676C28.4672 18.2213 28.0958 17.7833 27.541 17.4536C26.9877 17.1247 26.1836 16.8629 25 16.8629C23.8163 16.8629 23.0123 17.1247 22.4589 17.4536C21.9042 17.7833 21.5327 18.2213 21.2777 18.676C21.0186 19.1381 20.8833 19.6124 20.8146 19.9797C20.7808 20.1608 20.7645 20.3085 20.7567 20.4053C20.7529 20.4535 20.7512 20.4884 20.7505 20.5078Z" fill="white"/>
<path fill-rule="evenodd" clip-rule="evenodd" d="M25 13.75C25.6904 13.75 26.25 14.3096 26.25 15V34C26.25 34.6904 25.6904 35.25 25 35.25C24.3096 35.25 23.75 34.6904 23.75 34V15C23.75 14.3096 24.3096 13.75 25 13.75Z" fill="white"/>
</svg>
