<svg width="50" height="50" viewBox="0 0 50 50" fill="none" xmlns="http://www.w3.org/2000/svg">
<g clip-path="url(#clip0_609_616)">
<path d="M24.7473 1.50018C16.1538 1.50018 2 17.1248 2 49.1301L48 49.1301C48 17.1248 33.3407 1.50018 24.7473 1.50018Z" fill="#1F3860"/>
<path fill-rule="evenodd" clip-rule="evenodd" d="M2 49.25C2.69036 49.25 3.25 48.6904 3.25 48C3.25 32.1752 6.74958 20.7853 11.2206 13.3951C15.7372 5.92952 21.0916 2.75003 24.7473 2.75003C28.4134 2.75003 33.8943 5.94249 38.5345 13.4079C43.1276 20.7975 46.75 32.1833 46.75 48C46.75 48.6904 47.3096 49.25 48 49.25C48.6904 49.25 49.25 48.6904 49.25 48C49.25 31.8114 45.5427 19.9472 40.6578 12.0881C35.82 4.30488 29.6745 0.250031 24.7473 0.250031C19.8095 0.250031 13.7903 4.31786 9.08159 12.101C4.32734 19.9594 0.75 31.8194 0.75 48C0.75 48.6904 1.30964 49.25 2 49.25Z" fill="white"/>
<path d="M25 35.2699C24.148 35.2699 23.416 35.1499 22.804 34.9099C22.192 34.6579 21.682 34.3099 21.274 33.8659C20.878 33.4219 20.584 32.8999 20.392 32.2999C20.2 31.6999 20.104 31.0399 20.104 30.3199V22.5259H22.39V30.1039C22.39 30.6679 22.45 31.1539 22.57 31.5619C22.702 31.9579 22.882 32.2819 23.11 32.5339C23.35 32.7859 23.626 32.9719 23.938 33.0919C24.262 33.2119 24.622 33.2719 25.018 33.2719C25.414 33.2719 25.774 33.2119 26.098 33.0919C26.422 32.9719 26.698 32.7859 26.926 32.5339C27.166 32.2819 27.346 31.9579 27.466 31.5619C27.598 31.1539 27.664 30.6679 27.664 30.1039V22.5259H29.95V30.3199C29.95 31.0399 29.848 31.6999 29.644 32.2999C29.452 32.8999 29.152 33.4219 28.744 33.8659C28.348 34.3099 27.838 34.6579 27.214 34.9099C26.59 35.1499 25.852 35.2699 25 35.2699Z" fill="white"/>
</g>
<defs>
<clipPath id="clip0_609_616">
<rect width="50" height="50" fill="white"/>
</clipPath>
</defs>
</svg>
