<svg width="50" height="50" viewBox="0 0 50 50" fill="none" xmlns="http://www.w3.org/2000/svg">
<g clip-path="url(#clip0_612_975)">
<path d="M50 25C50 38.8071 38.8071 50 25 50C11.1929 50 0 38.8071 0 25C0 11.1929 11.1929 0 25 0C38.8071 0 50 11.1929 50 25Z" fill="#1F3860"/>
<path fill-rule="evenodd" clip-rule="evenodd" d="M25 47.5C37.4264 47.5 47.5 37.4264 47.5 25C47.5 12.5736 37.4264 2.5 25 2.5C12.5736 2.5 2.5 12.5736 2.5 25C2.5 37.4264 12.5736 47.5 25 47.5ZM25 50C38.8071 50 50 38.8071 50 25C50 11.1929 38.8071 0 25 0C11.1929 0 0 11.1929 0 25C0 38.8071 11.1929 50 25 50Z" fill="white"/>
<path d="M16.553 29.2321C16.6777 29.2434 16.842 29.2548 17.046 29.2661C17.25 29.2661 17.5277 29.2661 17.879 29.2661C19.3183 29.2661 20.3893 28.9034 21.092 28.1781C21.806 27.4414 22.163 26.4158 22.163 25.1011C22.163 23.7638 21.8173 22.7381 21.126 22.0241C20.4347 21.3101 19.3637 20.9531 17.913 20.9531C17.2783 20.9531 16.825 20.9701 16.553 21.0041V29.2321ZM24.407 25.1011C24.407 26.1211 24.2483 27.0108 23.931 27.7701C23.6137 28.5181 23.1603 29.1471 22.571 29.6571C21.993 30.1558 21.2903 30.5298 20.463 30.7791C19.647 31.0171 18.7403 31.1361 17.743 31.1361C17.267 31.1361 16.7287 31.1134 16.128 31.0681C15.5273 31.0341 14.955 30.9548 14.411 30.8301V19.3891C14.955 19.2644 15.533 19.1851 16.145 19.1511C16.757 19.1171 17.301 19.1001 17.777 19.1001C18.763 19.1001 19.664 19.2191 20.48 19.4571C21.296 19.6838 21.993 20.0464 22.571 20.5451C23.1603 21.0324 23.6137 21.6558 23.931 22.4151C24.2483 23.1631 24.407 24.0584 24.407 25.1011Z" fill="white"/>
<path d="M29.058 29.2321C29.1826 29.2434 29.347 29.2548 29.551 29.2661C29.755 29.2661 30.0326 29.2661 30.384 29.2661C31.8233 29.2661 32.8943 28.9034 33.597 28.1781C34.311 27.4414 34.668 26.4158 34.668 25.1011C34.668 23.7638 34.3223 22.7381 33.631 22.0241C32.9396 21.3101 31.8686 20.9531 30.418 20.9531C29.7833 20.9531 29.33 20.9701 29.058 21.0041V29.2321ZM36.912 25.1011C36.912 26.1211 36.7533 27.0108 36.436 27.7701C36.1186 28.5181 35.6653 29.1471 35.076 29.6571C34.498 30.1558 33.7953 30.5298 32.968 30.7791C32.152 31.0171 31.2453 31.1361 30.248 31.1361C29.772 31.1361 29.2336 31.1134 28.633 31.0681C28.0323 31.0341 27.46 30.9548 26.916 30.8301V19.3891C27.46 19.2644 28.038 19.1851 28.65 19.1511C29.262 19.1171 29.806 19.1001 30.282 19.1001C31.268 19.1001 32.169 19.2191 32.985 19.4571C33.801 19.6838 34.498 20.0464 35.076 20.5451C35.6653 21.0324 36.1186 21.6558 36.436 22.4151C36.7533 23.1631 36.912 24.0584 36.912 25.1011Z" fill="white"/>
</g>
<defs>
<clipPath id="clip0_612_975">
<rect width="50" height="50" fill="white"/>
</clipPath>
</defs>
</svg>
