<svg width="50" height="50" viewBox="0 0 50 50" fill="none" xmlns="http://www.w3.org/2000/svg">
<path d="M0.5 8.5C0.5 8.22386 0.723858 8 1 8H49C49.2761 8 49.5 8.22386 49.5 8.5V41.5C49.5 41.7761 49.2761 42 49 42H1C0.723857 42 0.5 41.7761 0.5 41.5V8.5Z" fill="#1F3860"/>
<path fill-rule="evenodd" clip-rule="evenodd" d="M47 10.5H3V39.5H47V10.5ZM0.5 8V42H49.5V8H0.5Z" fill="white"/>
<path fill-rule="evenodd" clip-rule="evenodd" d="M49.0471 9.31707C48.6699 8.73882 47.8955 8.57577 47.3172 8.95289L1.3172 38.9529C0.738953 39.33 0.575905 40.1045 0.953026 40.6827C1.33014 41.261 2.10462 41.424 2.68287 41.0469L48.6829 11.0469C49.2611 10.6698 49.4242 9.89532 49.0471 9.31707Z" fill="white"/>
<path fill-rule="evenodd" clip-rule="evenodd" d="M0.953009 9.31707C1.33013 8.73882 2.10461 8.57577 2.68286 8.95289L48.6829 38.9529C49.2611 39.33 49.4242 40.1045 49.047 40.6827C48.6699 41.261 47.8954 41.424 47.3172 41.0469L1.31719 11.0469C0.738938 10.6698 0.57589 9.89532 0.953009 9.31707Z" fill="white"/>
<path fill-rule="evenodd" clip-rule="evenodd" d="M9.75 25C9.75 20.4437 13.4437 16.75 18 16.75H32C36.5563 16.75 40.25 20.4437 40.25 25C40.25 29.5563 36.5563 33.25 32 33.25H18C13.4437 33.25 9.75 29.5563 9.75 25ZM18 19.25C14.8244 19.25 12.25 21.8244 12.25 25C12.25 28.1756 14.8244 30.75 18 30.75H32C35.1756 30.75 37.75 28.1756 37.75 25C37.75 21.8244 35.1756 19.25 32 19.25H18Z" fill="white"/>
</svg>
