<svg width="50" height="50" viewBox="0 0 50 50" fill="none" xmlns="http://www.w3.org/2000/svg">
<path d="M0.5 8.5C0.5 8.22386 0.723858 8 1 8H49C49.2761 8 49.5 8.22386 49.5 8.5V41.5C49.5 41.7761 49.2761 42 49 42H1C0.723857 42 0.5 41.7761 0.5 41.5V8.5Z" fill="#1F3860"/>
<path fill-rule="evenodd" clip-rule="evenodd" d="M47 11C47 10.7239 46.7761 10.5 46.5 10.5H3.5C3.22386 10.5 3 10.7239 3 11V39C3 39.2761 3.22386 39.5 3.5 39.5H46.5C46.7761 39.5 47 39.2761 47 39V11ZM1 8C0.723858 8 0.5 8.22386 0.5 8.5V41.5C0.5 41.7761 0.723857 42 1 42H49C49.2761 42 49.5 41.7761 49.5 41.5V8.5C49.5 8.22386 49.2761 8 49 8H1Z" fill="white"/>
<path fill-rule="evenodd" clip-rule="evenodd" d="M20.7505 20.5077L20.75 20.5233V33.387C20.75 34.0773 20.1904 34.637 19.5 34.637C18.8096 34.637 18.25 34.0773 18.25 33.387V20.516H19.5C18.25 20.516 18.25 20.5153 18.25 20.5146L18.25 20.513L18.25 20.5096L18.2501 20.5013L18.2504 20.4793C18.2507 20.4623 18.2512 20.4405 18.2522 20.4142C18.2542 20.3618 18.2579 20.2914 18.2647 20.2055C18.2785 20.0342 18.3051 19.7988 18.3572 19.5202C18.4604 18.9681 18.6689 18.2167 19.0973 17.4529C19.5297 16.6818 20.1895 15.894 21.1817 15.3044C22.1752 14.7139 23.4337 14.3628 25 14.3628C26.5663 14.3628 27.8248 14.7139 28.8183 15.3044C29.8104 15.894 30.4702 16.6818 30.9027 17.4529C31.7465 18.9573 31.75 20.4401 31.75 20.516V33.387C31.75 34.0773 31.1904 34.637 30.5 34.637C29.8096 34.637 29.25 34.0773 29.25 33.387V20.5192C29.25 20.5199 29.25 20.5202 29.25 20.5202C29.2495 20.5202 29.2338 19.588 28.7223 18.6759C28.4672 18.2212 28.0958 17.7832 27.541 17.4535C26.9877 17.1246 26.1836 16.8628 25 16.8628C23.8163 16.8628 23.0123 17.1246 22.4589 17.4535C21.9042 17.7832 21.5327 18.2212 21.2777 18.6759C21.0186 19.1379 20.8833 19.6123 20.8146 19.9796C20.7808 20.1607 20.7645 20.3083 20.7567 20.4052C20.7529 20.4534 20.7512 20.4883 20.7505 20.5077Z" fill="white"/>
<path fill-rule="evenodd" clip-rule="evenodd" d="M25 13.75C25.6904 13.75 26.25 14.3096 26.25 15V34C26.25 34.6904 25.6904 35.25 25 35.25C24.3096 35.25 23.75 34.6904 23.75 34V15C23.75 14.3096 24.3096 13.75 25 13.75Z" fill="white"/>
</svg>
