<svg width="50" height="50" viewBox="0 0 50 50" fill="none" xmlns="http://www.w3.org/2000/svg">
<path d="M36.3933 11.5781C35.7248 10.8593 34.5882 10.7939 33.8528 11.4474L31.1118 14.1266C29.8416 13.2771 28.4376 12.7543 26.9 12.493V8.70283C26.8331 7.72263 25.8972 6.93846 24.8944 7.00381C23.9584 7.06916 23.2899 7.78797 23.1562 8.70283V12.5583C21.6185 12.8197 20.2146 13.4078 18.8775 14.2573L16.0696 11.5128C15.3342 10.8593 14.1977 10.9246 13.596 11.6434C12.8606 12.2969 12.7938 13.4078 13.4623 14.1266L16.2702 16.8712C12.7938 21.5109 13.8634 28.1109 18.7438 31.509C23.6241 34.907 30.3764 33.8614 33.8528 29.0911C36.5939 25.3663 36.5939 20.3346 33.8528 16.6752L36.5939 13.9959C37.1955 13.3425 37.1287 12.2316 36.3933 11.5781Z" fill="#CC0033"/>
<path fill-rule="evenodd" clip-rule="evenodd" d="M2 1C2.69036 1 3.25 1.55964 3.25 2.25C3.25 18.0749 6.74961 29.3952 11.218 36.7157C15.7294 44.1066 21.0827 47.2299 24.7473 47.2299C28.4223 47.2299 33.9022 44.0938 38.5372 36.7029C43.1276 29.3829 46.75 18.0668 46.75 2.25C46.75 1.55964 47.3096 1 48 1C48.6904 1 49.25 1.55964 49.25 2.25C49.25 18.4385 45.5427 30.2374 40.6551 38.0311C35.8121 45.7538 29.6656 49.7299 24.7473 49.7299C19.8184 49.7299 13.7981 45.741 9.08416 38.0182C4.32731 30.2252 0.75 18.4304 0.75 2.25C0.75 1.55964 1.30964 1 2 1Z" fill="#1F3860"/>
</svg>
