<svg width="50" height="50" viewBox="0 0 50 50" fill="none" xmlns="http://www.w3.org/2000/svg">
<path d="M0.5 9.5C0.5 9.22386 0.723858 9 1 9H49C49.2761 9 49.5 9.22386 49.5 9.5V40.5C49.5 40.7761 49.2761 41 49 41H1C0.723857 41 0.5 40.7761 0.5 40.5V9.5Z" fill="#1F3860"/>
<path fill-rule="evenodd" clip-rule="evenodd" d="M47 12C47 11.7239 46.7761 11.5 46.5 11.5H3.5C3.22386 11.5 3 11.7239 3 12V38C3 38.2761 3.22386 38.5 3.5 38.5H46.5C46.7761 38.5 47 38.2761 47 38V12ZM1 9C0.723858 9 0.5 9.22386 0.5 9.5V40.5C0.5 40.7761 0.723857 41 1 41H49C49.2761 41 49.5 40.7761 49.5 40.5V9.5C49.5 9.22386 49.2761 9 49 9H1Z" fill="white"/>
<path fill-rule="evenodd" clip-rule="evenodd" d="M1.70001 34.25C2.39037 34.25 2.95001 34.8096 2.95001 35.5V48.5C2.95001 49.1904 2.39037 49.75 1.70001 49.75C1.00966 49.75 0.450012 49.1904 0.450012 48.5V35.5C0.450012 34.8096 1.00966 34.25 1.70001 34.25Z" fill="white"/>
</svg>
