<svg width="50" height="50" viewBox="0 0 50 50" fill="none" xmlns="http://www.w3.org/2000/svg">
<path d="M24.8944 4.14049C17.054 4.14049 4.14044 18.3959 4.14044 47.5967L46.1095 47.5967C46.1095 18.3959 32.7348 4.14049 24.8944 4.14049Z" fill="#1F3860"/>
<path fill-rule="evenodd" clip-rule="evenodd" d="M4.14046 47.7061C4.77032 47.7061 5.28093 47.1955 5.28093 46.5656C5.28093 32.1275 8.47385 21.7357 12.5531 14.993C16.6739 8.18169 21.5591 5.28082 24.8944 5.28082C28.2393 5.28082 33.2399 8.19353 37.4735 15.0047C41.6641 21.7468 44.9691 32.1349 44.9691 46.5656C44.9691 47.1955 45.4797 47.7061 46.1095 47.7061C46.7394 47.7061 47.25 47.1955 47.25 46.5656C47.25 31.7955 43.8676 20.971 39.4107 13.8006C34.9968 6.69943 29.3899 2.9999 24.8944 2.9999C20.3893 2.9999 14.8976 6.71126 10.6015 13.8124C6.26386 20.9821 3 31.8029 3 46.5656C3 47.1955 3.5106 47.7061 4.14046 47.7061Z" fill="white"/>
<path d="M23.932 22.3999C25.732 22.3999 27.106 22.7299 28.054 23.3899C29.014 24.0499 29.494 25.0579 29.494 26.4139C29.494 28.1059 28.66 29.2519 26.992 29.8519C27.22 30.1279 27.478 30.4639 27.766 30.8599C28.054 31.2559 28.348 31.6879 28.648 32.1559C28.948 32.6119 29.236 33.0859 29.512 33.5779C29.788 34.0579 30.034 34.5319 30.25 34.9999H27.712C27.484 34.5679 27.238 34.1359 26.974 33.7039C26.71 33.2599 26.44 32.8339 26.164 32.4259C25.9 32.0059 25.636 31.6159 25.372 31.2559C25.108 30.8839 24.862 30.5539 24.634 30.2659C24.466 30.2779 24.322 30.2839 24.202 30.2839C24.082 30.2839 23.968 30.2839 23.86 30.2839H22.762V34.9999H20.494V22.7059C21.046 22.5859 21.634 22.5079 22.258 22.4719C22.882 22.4239 23.44 22.3999 23.932 22.3999ZM24.094 24.3619C23.614 24.3619 23.17 24.3799 22.762 24.4159V28.4479H23.752C24.304 28.4479 24.79 28.4179 25.21 28.3579C25.63 28.2979 25.978 28.1899 26.254 28.0339C26.542 27.8779 26.758 27.6679 26.902 27.4039C27.046 27.1399 27.118 26.8039 27.118 26.3959C27.118 26.0119 27.046 25.6879 26.902 25.4239C26.758 25.1599 26.548 24.9499 26.272 24.7939C26.008 24.6379 25.69 24.5299 25.318 24.4699C24.946 24.3979 24.538 24.3619 24.094 24.3619Z" fill="white"/>
</svg>
