<svg width="50" height="50" viewBox="0 0 50 50" fill="none" xmlns="http://www.w3.org/2000/svg">
<path d="M35.4439 11.1462C34.831 10.4952 33.7892 10.436 33.1151 11.0278L30.6025 13.4543C29.4381 12.6849 28.1512 12.2115 26.7417 11.9748V8.54219C26.6804 7.65445 25.8224 6.94427 24.9032 7.00345C24.0452 7.06263 23.4324 7.71364 23.3098 8.54219V12.0339C21.9003 12.2707 20.6134 12.8033 19.3877 13.5727L16.8138 11.087C16.1397 10.4952 15.0979 10.5544 14.5463 11.2054C13.8722 11.7972 13.8109 12.8033 14.4238 13.4543L16.9977 15.94C13.8109 20.1419 14.7915 26.1193 19.2651 29.1968C23.7388 32.2743 29.9284 31.3273 33.1151 27.007C35.6277 23.6337 35.6277 19.0766 33.1151 15.7624L35.6277 13.3359C36.1793 12.7441 36.118 11.738 35.4439 11.1462Z" fill="#CC0033"/>
<path fill-rule="evenodd" clip-rule="evenodd" d="M4.14046 3C4.77032 3 5.28093 3.5106 5.28093 4.14046C5.28093 18.5787 8.47387 28.9069 12.5507 35.586C16.6667 42.3292 21.5509 45.1789 24.8944 45.1789C28.2474 45.1789 33.2471 42.3176 37.4759 35.5743C41.6641 28.8958 44.9691 18.5713 44.9691 4.14046C44.9691 3.5106 45.4797 3 46.1095 3C46.7394 3 47.25 3.5106 47.25 4.14046C47.25 18.9104 43.8676 29.6754 39.4083 36.7861C34.9897 43.832 29.3818 47.4598 24.8944 47.4598C20.3975 47.4598 14.9047 43.8204 10.6038 36.7744C6.26383 29.6642 3 18.903 3 4.14046C3 3.5106 3.5106 3 4.14046 3Z" fill="#1F3860"/>
</svg>
