<svg width="50" height="50" viewBox="0 0 50 50" fill="none" xmlns="http://www.w3.org/2000/svg">
<g clip-path="url(#clip0_609_621)">
<path d="M24.7473 1.50018C16.1538 1.50018 2 17.1248 2 49.1301L48 49.1301C48 17.1248 33.3407 1.50018 24.7473 1.50018Z" fill="#1F3860"/>
<path fill-rule="evenodd" clip-rule="evenodd" d="M2 49.25C2.69036 49.25 3.25 48.6904 3.25 48C3.25 32.1752 6.74958 20.7853 11.2206 13.3951C15.7372 5.92952 21.0916 2.75003 24.7473 2.75003C28.4134 2.75003 33.8943 5.94249 38.5345 13.4079C43.1276 20.7975 46.75 32.1833 46.75 48C46.75 48.6904 47.3096 49.25 48 49.25C48.6904 49.25 49.25 48.6904 49.25 48C49.25 31.8114 45.5427 19.9472 40.6578 12.0881C35.82 4.30488 29.6745 0.250031 24.7473 0.250031C19.8095 0.250031 13.7903 4.31786 9.08159 12.101C4.32734 19.9594 0.75 31.8194 0.75 48C0.75 48.6904 1.30964 49.25 2 49.25Z" fill="white"/>
<path d="M23.932 22.3999C25.732 22.3999 27.106 22.7299 28.054 23.3899C29.014 24.0499 29.494 25.0579 29.494 26.4139C29.494 28.1059 28.66 29.2519 26.992 29.8519C27.22 30.1279 27.478 30.4639 27.766 30.8599C28.054 31.2559 28.348 31.6879 28.648 32.1559C28.948 32.6119 29.236 33.0859 29.512 33.5779C29.788 34.0579 30.034 34.5319 30.25 34.9999H27.712C27.484 34.5679 27.238 34.1359 26.974 33.7039C26.71 33.2599 26.44 32.8339 26.164 32.4259C25.9 32.0059 25.636 31.6159 25.372 31.2559C25.108 30.8839 24.862 30.5539 24.634 30.2659C24.466 30.2779 24.322 30.2839 24.202 30.2839C24.082 30.2839 23.968 30.2839 23.86 30.2839H22.762V34.9999H20.494V22.7059C21.046 22.5859 21.634 22.5079 22.258 22.4719C22.882 22.4239 23.44 22.3999 23.932 22.3999ZM24.094 24.3619C23.614 24.3619 23.17 24.3799 22.762 24.4159V28.4479H23.752C24.304 28.4479 24.79 28.4179 25.21 28.3579C25.63 28.2979 25.978 28.1899 26.254 28.0339C26.542 27.8779 26.758 27.6679 26.902 27.4039C27.046 27.1399 27.118 26.8039 27.118 26.3959C27.118 26.0119 27.046 25.6879 26.902 25.4239C26.758 25.1599 26.548 24.9499 26.272 24.7939C26.008 24.6379 25.69 24.5299 25.318 24.4699C24.946 24.3979 24.538 24.3619 24.094 24.3619Z" fill="white"/>
</g>
<defs>
<clipPath id="clip0_609_621">
<rect width="50" height="50" fill="white"/>
</clipPath>
</defs>
</svg>
