<svg width="50" height="50" viewBox="0 0 50 50" fill="none" xmlns="http://www.w3.org/2000/svg">
<g clip-path="url(#clip0_609_626)">
<path d="M24.7473 1.50018C16.1538 1.50018 2 17.1248 2 49.1301L48 49.1301C48 17.1248 33.3407 1.50018 24.7473 1.50018Z" fill="#1F3860"/>
<path fill-rule="evenodd" clip-rule="evenodd" d="M2 49.25C2.69036 49.25 3.25 48.6904 3.25 48C3.25 32.1752 6.74958 20.7853 11.2206 13.3951C15.7372 5.92952 21.0916 2.75003 24.7473 2.75003C28.4134 2.75003 33.8943 5.94249 38.5345 13.4079C43.1276 20.7975 46.75 32.1833 46.75 48C46.75 48.6904 47.3096 49.25 48 49.25C48.6904 49.25 49.25 48.6904 49.25 48C49.25 31.8114 45.5427 19.9472 40.6578 12.0881C35.82 4.30488 29.6745 0.250031 24.7473 0.250031C19.8095 0.250031 13.7903 4.31786 9.08159 12.101C4.32734 19.9594 0.75 31.8194 0.75 48C0.75 48.6904 1.30964 49.25 2 49.25Z" fill="white"/>
<path d="M20.494 34.9999V22.5259H28.378V24.4519H22.762V27.6379H27.748V29.5639H22.762V34.9999H20.494Z" fill="white"/>
</g>
<defs>
<clipPath id="clip0_609_626">
<rect width="50" height="50" fill="white"/>
</clipPath>
</defs>
</svg>
