<svg width="50" height="50" viewBox="0 0 50 50" fill="none" xmlns="http://www.w3.org/2000/svg">
<path fill-rule="evenodd" clip-rule="evenodd" d="M5.12903 1C5.75258 1 6.25806 1.53684 6.25806 2.19907V29.9185L25 45.5368L43.7419 29.9185V2.19907C43.7419 1.53684 44.2474 1 44.871 1C45.4945 1 46 1.53684 46 2.19907V30.0351C46 30.6979 45.7133 31.324 45.2223 31.7331L26.2545 47.5397C25.518 48.1534 24.482 48.1534 23.7455 47.5397L4.77772 31.7331C4.28674 31.324 4 30.6979 4 30.0351V2.19907C4 1.53684 4.50548 1 5.12903 1Z" fill="#CC0033"/>
<path d="M35.4439 11.1462C34.831 10.4952 33.7892 10.436 33.1151 11.0278L30.6025 13.4543C29.4381 12.6849 28.1512 12.2115 26.7417 11.9748V8.54219C26.6804 7.65445 25.8224 6.94427 24.9032 7.00345C24.0452 7.06263 23.4324 7.71364 23.3098 8.54219V12.0339C21.9003 12.2707 20.6134 12.8033 19.3877 13.5727L16.8138 11.087C16.1397 10.4952 15.0979 10.5544 14.5463 11.2054C13.8722 11.7972 13.8109 12.8033 14.4238 13.4543L16.9977 15.94C13.8109 20.1419 14.7915 26.1193 19.2651 29.1968C23.7388 32.2743 29.9284 31.3273 33.1151 27.007C35.6277 23.6337 35.6277 19.0766 33.1151 15.7624L35.6277 13.3359C36.1793 12.7441 36.118 11.738 35.4439 11.1462Z" fill="#CC0033"/>
</svg>
