<svg width="50" height="50" viewBox="0 0 50 50" fill="none" xmlns="http://www.w3.org/2000/svg">
<g clip-path="url(#clip0_609_577)">
<path d="M48.2929 24.2929L25.7071 1.70708C25.3166 1.31655 24.6834 1.31655 24.2929 1.70708L1.70711 24.2929C1.31658 24.6834 1.31658 25.3166 1.70711 25.7071L24.2929 48.2929C24.6834 48.6834 25.3166 48.6834 25.7071 48.2929L48.2929 25.7071C48.6834 25.3166 48.6834 24.6834 48.2929 24.2929Z" fill="#CC0033"/>
<path fill-rule="evenodd" clip-rule="evenodd" d="M23.5858 0.999971C24.3668 0.21892 25.6332 0.218925 26.4142 0.999971L49 23.5858C49.7811 24.3668 49.781 25.6331 49 26.4142L26.4142 49C25.6332 49.781 24.3668 49.781 23.5858 49L1 26.4142C0.21895 25.6331 0.218955 24.3668 1 23.5858L23.5858 0.999971ZM25 2.41418L2.41422 25L25 47.5858L47.5858 25L25 2.41418Z" fill="white"/>
<path fill-rule="evenodd" clip-rule="evenodd" d="M40.047 15.1867C39.6699 14.6084 38.8954 14.4454 38.3171 14.8225L10.3171 33.0834C9.73889 33.4605 9.57584 34.235 9.95296 34.8132C10.3301 35.3915 11.1046 35.5545 11.6828 35.1774L39.6828 16.9165C40.2611 16.5394 40.4241 15.7649 40.047 15.1867Z" fill="white"/>
<path fill-rule="evenodd" clip-rule="evenodd" d="M10.153 15.3172C10.5301 14.7389 11.3046 14.5759 11.8828 14.953L39.6828 33.0834C40.2611 33.4606 40.4241 34.235 40.047 34.8133C39.6699 35.3915 38.8954 35.5546 38.3172 35.1775L10.5172 17.047C9.93892 16.6699 9.77587 15.8954 10.153 15.3172Z" fill="white"/>
<path fill-rule="evenodd" clip-rule="evenodd" d="M9.75 25C9.75 20.4437 13.4437 16.75 18 16.75H32C36.5563 16.75 40.25 20.4437 40.25 25C40.25 29.5563 36.5563 33.25 32 33.25H18C13.4437 33.25 9.75 29.5563 9.75 25ZM18 19.25C14.8244 19.25 12.25 21.8244 12.25 25C12.25 28.1756 14.8244 30.75 18 30.75H32C35.1756 30.75 37.75 28.1756 37.75 25C37.75 21.8244 35.1756 19.25 32 19.25H18Z" fill="white"/>
</g>
<defs>
<clipPath id="clip0_609_577">
<rect width="50" height="50" fill="white"/>
</clipPath>
</defs>
</svg>
