<svg width="50" height="50" viewBox="0 0 50 50" fill="none" xmlns="http://www.w3.org/2000/svg">
<g clip-path="url(#clip0_612_993)">
<path d="M48.2929 24.2927L25.7071 1.70696C25.3166 1.31643 24.6834 1.31643 24.2929 1.70696L1.70708 24.2927C1.31655 24.6833 1.31655 25.3164 1.70708 25.707L24.2929 48.2927C24.6834 48.6833 25.3166 48.6833 25.7071 48.2927L48.2929 25.707C48.6834 25.3164 48.6834 24.6833 48.2929 24.2927Z" fill="#CC0033"/>
<path fill-rule="evenodd" clip-rule="evenodd" d="M23.5858 0.999849C24.3668 0.218798 25.6331 0.218803 26.4142 0.999849L49 23.5856C49.781 24.3667 49.781 25.633 49 26.4141L26.4142 48.9998C25.6331 49.7809 24.3668 49.7809 23.5858 48.9998L0.999971 26.4141C0.21892 25.633 0.218925 24.3667 0.999971 23.5856L23.5858 0.999849ZM25 2.41406L2.41418 24.9998L25 47.5856L47.5858 24.9999L25 2.41406Z" fill="white"/>
<path fill-rule="evenodd" clip-rule="evenodd" d="M40.0471 15.1867C39.6699 14.6084 38.8955 14.4454 38.3172 14.8225L10.3172 33.0834C9.73895 33.4605 9.5759 34.235 9.95303 34.8132C10.3301 35.3915 11.1046 35.5545 11.6829 35.1774L39.6829 16.9165C40.2611 16.5394 40.4242 15.7649 40.0471 15.1867Z" fill="white"/>
<path fill-rule="evenodd" clip-rule="evenodd" d="M10.153 15.3171C10.5301 14.7388 11.3046 14.5758 11.8829 14.9529L39.6829 33.0833C40.2611 33.4604 40.4242 34.2349 40.047 34.8132C39.6699 35.3914 38.8954 35.5545 38.3172 35.1773L10.5172 17.0469C9.93895 16.6698 9.7759 15.8953 10.153 15.3171Z" fill="white"/>
<path fill-rule="evenodd" clip-rule="evenodd" d="M9.75 25C9.75 20.4437 13.4437 16.75 18 16.75H32C36.5563 16.75 40.25 20.4437 40.25 25C40.25 29.5563 36.5563 33.25 32 33.25H18C13.4437 33.25 9.75 29.5563 9.75 25ZM18 19.25C14.8244 19.25 12.25 21.8244 12.25 25C12.25 28.1756 14.8244 30.75 18 30.75H32C35.1756 30.75 37.75 28.1756 37.75 25C37.75 21.8244 35.1756 19.25 32 19.25H18Z" fill="white"/>
</g>
<defs>
<clipPath id="clip0_612_993">
<rect width="50" height="50" fill="white"/>
</clipPath>
</defs>
</svg>
