<svg width="50" height="50" viewBox="0 0 50 50" fill="none" xmlns="http://www.w3.org/2000/svg">
<g clip-path="url(#clip0_612_1013)">
<path d="M25.7889 1.14703L44.534 17.882C44.7471 18.0722 44.871 18.3592 44.871 18.6626V47.8729C44.871 48.4263 44.4666 48.8749 43.9677 48.8749L25.2291 48.875H6.03225C5.53342 48.875 5.12903 48.4264 5.12903 47.873V18.6696C5.12903 18.3622 5.25616 18.0719 5.47393 17.8819L24.6643 1.14002C24.9949 0.85159 25.4612 0.854496 25.7889 1.14703Z" fill="#CC0033"/>
<path fill-rule="evenodd" clip-rule="evenodd" d="M5.12903 49C5.75258 49 6.25806 48.4392 6.25806 47.7475V18.792L25 2.47711L43.7419 18.792V47.7475C43.7419 48.4392 44.2474 49 44.871 49C45.4945 49 46 48.4392 46 47.7475V18.6701C46 17.9777 45.7133 17.3238 45.2223 16.8964L26.2545 0.384972C25.518 -0.25617 24.482 -0.256166 23.7455 0.384976L4.77772 16.8964C4.28674 17.3238 4 17.9777 4 18.6701V47.7475C4 48.4392 4.50548 49 5.12903 49Z" fill="white"/>
<path d="M25 35.2699C24.148 35.2699 23.416 35.1499 22.804 34.9099C22.192 34.6579 21.682 34.3099 21.274 33.8659C20.878 33.4219 20.584 32.8999 20.392 32.2999C20.2 31.6999 20.104 31.0399 20.104 30.3199V22.5259H22.39V30.1039C22.39 30.6679 22.45 31.1539 22.57 31.5619C22.702 31.9579 22.882 32.2819 23.11 32.5339C23.35 32.7859 23.626 32.9719 23.938 33.0919C24.262 33.2119 24.622 33.2719 25.018 33.2719C25.414 33.2719 25.774 33.2119 26.098 33.0919C26.422 32.9719 26.698 32.7859 26.926 32.5339C27.166 32.2819 27.346 31.9579 27.466 31.5619C27.598 31.1539 27.664 30.6679 27.664 30.1039V22.5259H29.95V30.3199C29.95 31.0399 29.848 31.6999 29.644 32.2999C29.452 32.8999 29.152 33.4219 28.744 33.8659C28.348 34.3099 27.838 34.6579 27.214 34.9099C26.59 35.1499 25.852 35.2699 25 35.2699Z" fill="white"/>
</g>
<defs>
<clipPath id="clip0_612_1013">
<rect width="50" height="50" fill="white"/>
</clipPath>
</defs>
</svg>
