<svg width="50" height="50" viewBox="0 0 50 50" fill="none" xmlns="http://www.w3.org/2000/svg">
<g clip-path="url(#clip0_612_1023)">
<path d="M25.7889 1.14703L44.534 17.882C44.747 18.0722 44.8709 18.3592 44.8709 18.6626V47.8729C44.8709 48.4263 44.4666 48.8749 43.9677 48.8749L25.2291 48.875H6.03222C5.53339 48.875 5.129 48.4264 5.129 47.873V18.6696C5.129 18.3622 5.25613 18.0719 5.4739 17.8819L24.6643 1.14002C24.9949 0.85159 25.4612 0.854496 25.7889 1.14703Z" fill="#CC0033"/>
<path fill-rule="evenodd" clip-rule="evenodd" d="M5.12903 49C5.75258 49 6.25806 48.4392 6.25806 47.7475V18.792L25 2.47711L43.7419 18.792V47.7475C43.7419 48.4392 44.2474 49 44.871 49C45.4945 49 46 48.4392 46 47.7475V18.6701C46 17.9777 45.7133 17.3238 45.2223 16.8964L26.2545 0.384972C25.518 -0.25617 24.482 -0.256166 23.7455 0.384976L4.77772 16.8964C4.28674 17.3238 4 17.9777 4 18.6701V47.7475C4 48.4392 4.50548 49 5.12903 49Z" fill="white"/>
<path d="M21.494 34.9999V22.5259H29.378V24.4519H23.762V27.6379H28.748V29.5639H23.762V34.9999H21.494Z" fill="white"/>
</g>
<defs>
<clipPath id="clip0_612_1023">
<rect width="50" height="50" fill="white"/>
</clipPath>
</defs>
</svg>
