<svg width="50" height="50" viewBox="0 0 50 50" fill="none" xmlns="http://www.w3.org/2000/svg">
<path d="M25.7889 47.853L44.534 31.118C44.747 30.9278 44.8709 30.6408 44.8709 30.3374V1.12714C44.8709 0.573738 44.4666 0.125115 43.9677 0.125112L25.2291 0.125H6.03222C5.53339 0.125 5.129 0.573624 5.129 1.12703V30.3304C5.129 30.6378 5.25613 30.9281 5.4739 31.1181L24.6643 47.86C24.9949 48.1484 25.4612 48.1455 25.7889 47.853Z" fill="#CC0033"/>
<path fill-rule="evenodd" clip-rule="evenodd" d="M5.12903 0C5.75258 0 6.25806 0.56078 6.25806 1.25254V30.208L25 46.5229L43.7419 30.208V1.25254C43.7419 0.56078 44.2474 0 44.871 0C45.4945 0 46 0.56078 46 1.25254V30.3299C46 31.0223 45.7133 31.6762 45.2223 32.1036L26.2545 48.615C25.518 49.2562 24.482 49.2562 23.7455 48.615L4.77772 32.1036C4.28674 31.6762 4 31.0223 4 30.3299V1.25254C4 0.56078 4.50548 0 5.12903 0Z" fill="white"/>
<path d="M17.1163 14.2845C17.288 14.1029 17.5269 14 17.7769 14H32.9937C33.2437 14 33.4826 14.1029 33.6543 14.2845L37.5221 18.3754C37.8534 18.7259 37.8534 19.2741 37.5221 19.6246L33.6543 23.7155C33.4826 23.8971 33.2437 24 32.9937 24H17.7769C17.5269 24 17.288 23.8971 17.1163 23.7155L13.2485 19.6246C12.9172 19.2741 12.9172 18.7259 13.2485 18.3754L17.1163 14.2845Z" fill="white"/>
</svg>
