<svg width="50" height="50" viewBox="0 0 50 50" fill="none" xmlns="http://www.w3.org/2000/svg">
<path d="M25.8735 48.6313L46.6269 31.9302C46.8628 31.7404 47 31.4539 47 31.1512V2.00011C47 1.44783 46.5523 1.00011 46 1.00011L25.2537 1H4C3.44772 1 3 1.44772 3 2V31.1442C3 31.4509 3.14076 31.7407 3.38185 31.9303L24.6284 48.6383C24.9944 48.9261 25.5107 48.9232 25.8735 48.6313Z" fill="#CC0033"/>
<path fill-rule="evenodd" clip-rule="evenodd" d="M3 0.875122C3.69036 0.875122 4.25 1.43477 4.25 2.12512V30.7787C4.25 30.9323 4.32055 31.0773 4.44134 31.1721L24.6913 47.0616C24.8726 47.2037 25.1274 47.2037 25.3087 47.0616L45.5587 31.1721C45.6795 31.0773 45.75 30.9323 45.75 30.7787V2.12512C45.75 1.43477 46.3096 0.875122 47 0.875122C47.6904 0.875122 48.25 1.43477 48.25 2.12512V31.1436C48.25 31.8345 47.9325 32.4872 47.389 32.9137L26.3889 49.3916C25.5735 50.0315 24.4265 50.0315 23.6111 49.3916L2.61105 32.9137C2.06747 32.4872 1.75 31.8345 1.75 31.1436V2.12512C1.75 1.43477 2.30964 0.875122 3 0.875122Z" fill="white"/>
<path d="M15.9041 14.313C16.093 14.1132 16.3558 14 16.6307 14H33.3693C33.6442 14 33.907 14.1132 34.0959 14.313L38.3505 18.813C38.7149 19.1985 38.7149 19.8015 38.3505 20.187L34.0959 24.687C33.907 24.8868 33.6442 25 33.3693 25H16.6307C16.3558 25 16.093 24.8868 15.9041 24.687L11.6495 20.187C11.2851 19.8015 11.2851 19.1985 11.6495 18.813L15.9041 14.313Z" fill="white"/>
</svg>
