<svg width="50" height="50" viewBox="0 0 50 50" fill="none" xmlns="http://www.w3.org/2000/svg">
<path d="M25.8735 1.49874L46.6269 18.1998C46.8628 18.3896 47 18.6761 47 18.9789V48.1299C47 48.6822 46.5523 49.1299 46 49.1299L25.2537 49.13H4C3.44772 49.13 3 48.6823 3 48.13V18.9858C3 18.6791 3.14076 18.3893 3.38185 18.1997L24.6284 1.49175C24.9944 1.2039 25.5107 1.2068 25.8735 1.49874Z" fill="#CC0033"/>
<path fill-rule="evenodd" clip-rule="evenodd" d="M3 49.2549C3.69036 49.2549 4.25 48.6952 4.25 48.0049V19.108L25 2.82626L45.75 19.108V48.0049C45.75 48.6952 46.3096 49.2549 47 49.2549C47.6904 49.2549 48.25 48.6952 48.25 48.0049V18.9864C48.25 18.2955 47.9325 17.6428 47.389 17.2163L26.3889 0.738361C25.5735 0.0985184 24.4265 0.0985222 23.6111 0.738365L2.61105 17.2163C2.06747 17.6428 1.75 18.2955 1.75 18.9864V48.0049C1.75 48.6952 2.30964 49.2549 3 49.2549Z" fill="white"/>
<path d="M25 35.27C24.148 35.27 23.416 35.15 22.804 34.91C22.192 34.658 21.682 34.31 21.274 33.866C20.878 33.422 20.584 32.9 20.392 32.3C20.2 31.7 20.104 31.04 20.104 30.32V22.526H22.39V30.104C22.39 30.668 22.45 31.154 22.57 31.562C22.702 31.958 22.882 32.282 23.11 32.534C23.35 32.786 23.626 32.972 23.938 33.092C24.262 33.212 24.622 33.272 25.018 33.272C25.414 33.272 25.774 33.212 26.098 33.092C26.422 32.972 26.698 32.786 26.926 32.534C27.166 32.282 27.346 31.958 27.466 31.562C27.598 31.154 27.664 30.668 27.664 30.104V22.526H29.95V30.32C29.95 31.04 29.848 31.7 29.644 32.3C29.452 32.9 29.152 33.422 28.744 33.866C28.348 34.31 27.838 34.658 27.214 34.91C26.59 35.15 25.852 35.27 25 35.27Z" fill="white"/>
</svg>
