<svg width="50" height="50" viewBox="0 0 50 50" fill="none" xmlns="http://www.w3.org/2000/svg">
<path d="M25.8735 1.49862L46.6269 18.1997C46.8628 18.3895 47 18.676 47 18.9787V48.1298C47 48.6821 46.5523 49.1298 46 49.1298L25.2537 49.1299H4C3.44772 49.1299 3 48.6822 3 48.1299V18.9857C3 18.6789 3.14076 18.3892 3.38185 18.1996L24.6284 1.49163C24.9944 1.20378 25.5107 1.20668 25.8735 1.49862Z" fill="#CC0033"/>
<path fill-rule="evenodd" clip-rule="evenodd" d="M3 49.2549C3.69036 49.2549 4.25 48.6952 4.25 48.0049V19.108L25 2.82626L45.75 19.108V48.0049C45.75 48.6952 46.3096 49.2549 47 49.2549C47.6904 49.2549 48.25 48.6952 48.25 48.0049V18.9864C48.25 18.2955 47.9325 17.6428 47.389 17.2163L26.3889 0.738361C25.5735 0.0985184 24.4265 0.0985222 23.6111 0.738365L2.61105 17.2163C2.06747 17.6428 1.75 18.2955 1.75 18.9864V48.0049C1.75 48.6952 2.30964 49.2549 3 49.2549Z" fill="white"/>
<path d="M21.494 34.9999V22.5259H29.378V24.4519H23.762V27.6379H28.748V29.5639H23.762V34.9999H21.494Z" fill="white"/>
</svg>
