<svg width="50" height="50" viewBox="0 0 50 50" fill="none" xmlns="http://www.w3.org/2000/svg">
<path d="M47.3019 24.296L25.9007 2.71024C25.5118 2.31803 24.8786 2.31533 24.4864 2.7042L2.71617 24.29C2.32162 24.6812 2.32162 25.319 2.71617 25.7102L24.4864 47.296C24.8786 47.6848 25.5118 47.6821 25.9007 47.2899L47.3019 25.7041C47.6884 25.3143 47.6884 24.6858 47.3019 24.296Z" fill="#CC0033"/>
<path fill-rule="evenodd" clip-rule="evenodd" d="M23.6063 1.81656C24.4888 0.941605 25.9134 0.947694 26.7883 1.83016L48.1896 23.4159C49.0592 24.293 49.0592 25.7071 48.1896 26.5842L26.7883 48.17C25.9134 49.0525 24.4888 49.0585 23.6063 48.1836L1.83605 26.5978C0.948326 25.7176 0.948326 24.2825 1.83605 23.4023L23.6063 1.81656ZM25.189 3.76786L3.77533 25.0001L25.189 46.2323L46.2398 25.0001L25.189 3.76786Z" fill="white"/>
<path fill-rule="evenodd" clip-rule="evenodd" d="M2.5 23.75C3.19036 23.75 3.75 24.3096 3.75 25V48.5C3.75 49.1904 3.19036 49.75 2.5 49.75C1.80964 49.75 1.25 49.1904 1.25 48.5V25C1.25 24.3096 1.80964 23.75 2.5 23.75Z" fill="white"/>
</svg>
