<svg width="50" height="50" viewBox="0 0 50 50" fill="none" xmlns="http://www.w3.org/2000/svg">
<path fill-rule="evenodd" clip-rule="evenodd" d="M3 0.875122C3.69036 0.875122 4.25 1.43477 4.25 2.12512V31.022L25 47.3037L45.75 31.022V2.12512C45.75 1.43477 46.3096 0.875122 47 0.875122C47.6904 0.875122 48.25 1.43477 48.25 2.12512V31.1436C48.25 31.8345 47.9325 32.4872 47.389 32.9137L26.3889 49.3916C25.5735 50.0315 24.4265 50.0315 23.6111 49.3916L2.61105 32.9137C2.06747 32.4872 1.75 31.8345 1.75 31.1436V2.12512C1.75 1.43477 2.30964 0.875122 3 0.875122Z" fill="#CC0033"/>
<path d="M36.3933 11.5781C35.7248 10.8593 34.5882 10.7939 33.8528 11.4474L31.1118 14.1266C29.8416 13.2771 28.4376 12.7543 26.9 12.493V8.70283C26.8331 7.72263 25.8972 6.93846 24.8944 7.00381C23.9584 7.06916 23.2899 7.78797 23.1562 8.70283V12.5583C21.6185 12.8197 20.2146 13.4078 18.8775 14.2573L16.0696 11.5128C15.3342 10.8593 14.1977 10.9246 13.596 11.6434C12.8606 12.2969 12.7938 13.4078 13.4623 14.1266L16.2702 16.8712C12.7938 21.5109 13.8634 28.1109 18.7438 31.509C23.6241 34.907 30.3764 33.8614 33.8528 29.0911C36.5939 25.3663 36.5939 20.3346 33.8528 16.6752L36.5939 13.9959C37.1955 13.3425 37.1287 12.2316 36.3933 11.5781Z" fill="#CC0033"/>
</svg>
