<svg width="50" height="50" viewBox="0 0 50 50" fill="none" xmlns="http://www.w3.org/2000/svg">
<path d="M25.8735 1.49862L46.6269 18.1997C46.8628 18.3895 47 18.676 47 18.9787V48.1298C47 48.6821 46.5523 49.1298 46 49.1298L25.2537 49.1299H4C3.44772 49.1299 3 48.6822 3 48.1299V18.9857C3 18.6789 3.14076 18.3892 3.38185 18.1996L24.6284 1.49163C24.9944 1.20378 25.5107 1.20668 25.8735 1.49862Z" fill="#CC0033"/>
<path fill-rule="evenodd" clip-rule="evenodd" d="M3 49.2549C3.69036 49.2549 4.25 48.6952 4.25 48.0049V19.108L25 2.82626L45.75 19.108V48.0049C45.75 48.6952 46.3096 49.2549 47 49.2549C47.6904 49.2549 48.25 48.6952 48.25 48.0049V18.9864C48.25 18.2955 47.9325 17.6428 47.389 17.2163L26.3889 0.738361C25.5735 0.0985184 24.4265 0.0985222 23.6111 0.738365L2.61105 17.2163C2.06747 17.6428 1.75 18.2955 1.75 18.9864V48.0049C1.75 48.6952 2.30964 49.2549 3 49.2549Z" fill="white"/>
<path d="M23.932 22.3999C25.732 22.3999 27.106 22.7299 28.054 23.3899C29.014 24.0499 29.494 25.0579 29.494 26.4139C29.494 28.1059 28.66 29.2519 26.992 29.8519C27.22 30.1279 27.478 30.4639 27.766 30.8599C28.054 31.2559 28.348 31.6879 28.648 32.1559C28.948 32.6119 29.236 33.0859 29.512 33.5779C29.788 34.0579 30.034 34.5319 30.25 34.9999H27.712C27.484 34.5679 27.238 34.1359 26.974 33.7039C26.71 33.2599 26.44 32.8339 26.164 32.4259C25.9 32.0059 25.636 31.6159 25.372 31.2559C25.108 30.8839 24.862 30.5539 24.634 30.2659C24.466 30.2779 24.322 30.2839 24.202 30.2839C24.082 30.2839 23.968 30.2839 23.86 30.2839H22.762V34.9999H20.494V22.7059C21.046 22.5859 21.634 22.5079 22.258 22.4719C22.882 22.4239 23.44 22.3999 23.932 22.3999ZM24.094 24.3619C23.614 24.3619 23.17 24.3799 22.762 24.4159V28.4479H23.752C24.304 28.4479 24.79 28.4179 25.21 28.3579C25.63 28.2979 25.978 28.1899 26.254 28.0339C26.542 27.8779 26.758 27.6679 26.902 27.4039C27.046 27.1399 27.118 26.8039 27.118 26.3959C27.118 26.0119 27.046 25.6879 26.902 25.4239C26.758 25.1599 26.548 24.9499 26.272 24.7939C26.008 24.6379 25.69 24.5299 25.318 24.4699C24.946 24.3979 24.538 24.3619 24.094 24.3619Z" fill="white"/>
</svg>
