<svg width="50" height="50" viewBox="0 0 50 50" fill="none" xmlns="http://www.w3.org/2000/svg">
<g clip-path="url(#clip0_612_983)">
<path d="M48.302 24.296L25.9092 1.71024C25.5204 1.31803 24.8872 1.31533 24.495 1.7042L1.7162 24.29C1.32165 24.6812 1.32165 25.319 1.7162 25.7102L24.495 48.296C24.8872 48.6848 25.5204 48.6821 25.9092 48.2899L48.302 25.7041C48.6885 25.3143 48.6885 24.6858 48.302 24.296Z" fill="#CC0033"/>
<path fill-rule="evenodd" clip-rule="evenodd" d="M23.7909 0.994089C24.5753 0.216352 25.8417 0.22176 26.6194 1.00617L49.0121 23.5919C49.7851 24.3716 49.7851 25.6286 49.0121 26.4082L26.6194 48.994C25.8417 49.7784 24.5753 49.7838 23.7909 49.0061L1.01211 26.4203C0.22302 25.6379 0.223011 24.3623 1.0121 23.5799L23.7909 0.994091L23.7909 0.994089ZM25.1991 2.41431L2.42029 25.0001L25.1991 47.5858L47.5918 25.0001L25.1991 2.41431Z" fill="white"/>
<path fill-rule="evenodd" clip-rule="evenodd" d="M20.7505 20.5077L20.75 20.5233V33.387C20.75 34.0773 20.1904 34.637 19.5 34.637C18.8096 34.637 18.25 34.0773 18.25 33.387V20.516H19.5C18.25 20.516 18.25 20.5153 18.25 20.5146L18.25 20.513L18.25 20.5096L18.2501 20.5013L18.2504 20.4793C18.2507 20.4623 18.2512 20.4405 18.2522 20.4142C18.2542 20.3618 18.2579 20.2914 18.2647 20.2055C18.2785 20.0342 18.3051 19.7988 18.3572 19.5202C18.4604 18.9681 18.6689 18.2167 19.0973 17.4529C19.5297 16.6818 20.1895 15.894 21.1817 15.3044C22.1752 14.7139 23.4337 14.3628 25 14.3628C26.5663 14.3628 27.8248 14.7139 28.8183 15.3044C29.8104 15.894 30.4702 16.6818 30.9027 17.4529C31.7465 18.9573 31.75 20.4401 31.75 20.516V33.387C31.75 34.0773 31.1904 34.637 30.5 34.637C29.8096 34.637 29.25 34.0773 29.25 33.387V20.5192C29.25 20.5199 29.25 20.5202 29.25 20.5202C29.2495 20.5202 29.2338 19.588 28.7223 18.6759C28.4672 18.2212 28.0958 17.7832 27.541 17.4535C26.9877 17.1246 26.1836 16.8628 25 16.8628C23.8163 16.8628 23.0123 17.1246 22.4589 17.4535C21.9042 17.7832 21.5327 18.2212 21.2777 18.6759C21.0186 19.1379 20.8833 19.6123 20.8146 19.9796C20.7808 20.1607 20.7645 20.3083 20.7567 20.4052C20.7529 20.4534 20.7512 20.4883 20.7505 20.5077Z" fill="white"/>
<path fill-rule="evenodd" clip-rule="evenodd" d="M25 13.75C25.6904 13.75 26.25 14.3096 26.25 15V34C26.25 34.6904 25.6904 35.25 25 35.25C24.3096 35.25 23.75 34.6904 23.75 34V15C23.75 14.3096 24.3096 13.75 25 13.75Z" fill="white"/>
</g>
<defs>
<clipPath id="clip0_612_983">
<rect width="50" height="50" fill="white"/>
</clipPath>
</defs>
</svg>
