<svg width="50" height="50" viewBox="0 0 50 50" fill="none" xmlns="http://www.w3.org/2000/svg">
<g clip-path="url(#clip0_612_1018)">
<path d="M25.7889 1.14703L44.534 17.882C44.7471 18.0722 44.871 18.3592 44.871 18.6626V47.8729C44.871 48.4263 44.4666 48.8749 43.9677 48.8749L25.2291 48.875H6.03225C5.53342 48.875 5.12903 48.4264 5.12903 47.873V18.6696C5.12903 18.3622 5.25616 18.0719 5.47393 17.8819L24.6643 1.14002C24.9949 0.85159 25.4612 0.854496 25.7889 1.14703Z" fill="#CC0033"/>
<path fill-rule="evenodd" clip-rule="evenodd" d="M5.12903 49C5.75258 49 6.25806 48.4392 6.25806 47.7475V18.792L25 2.47711L43.7419 18.792V47.7475C43.7419 48.4392 44.2474 49 44.871 49C45.4945 49 46 48.4392 46 47.7475V18.6701C46 17.9777 45.7133 17.3238 45.2223 16.8964L26.2545 0.384972C25.518 -0.25617 24.482 -0.256166 23.7455 0.384976L4.77772 16.8964C4.28674 17.3238 4 17.9777 4 18.6701V47.7475C4 48.4392 4.50548 49 5.12903 49Z" fill="white"/>
<path d="M23.932 22.3999C25.732 22.3999 27.106 22.7299 28.054 23.3899C29.014 24.0499 29.494 25.0579 29.494 26.4139C29.494 28.1059 28.66 29.2519 26.992 29.8519C27.22 30.1279 27.478 30.4639 27.766 30.8599C28.054 31.2559 28.348 31.6879 28.648 32.1559C28.948 32.6119 29.236 33.0859 29.512 33.5779C29.788 34.0579 30.034 34.5319 30.25 34.9999H27.712C27.484 34.5679 27.238 34.1359 26.974 33.7039C26.71 33.2599 26.44 32.8339 26.164 32.4259C25.9 32.0059 25.636 31.6159 25.372 31.2559C25.108 30.8839 24.862 30.5539 24.634 30.2659C24.466 30.2779 24.322 30.2839 24.202 30.2839C24.082 30.2839 23.968 30.2839 23.86 30.2839H22.762V34.9999H20.494V22.7059C21.046 22.5859 21.634 22.5079 22.258 22.4719C22.882 22.4239 23.44 22.3999 23.932 22.3999ZM24.094 24.3619C23.614 24.3619 23.17 24.3799 22.762 24.4159V28.4479H23.752C24.304 28.4479 24.79 28.4179 25.21 28.3579C25.63 28.2979 25.978 28.1899 26.254 28.0339C26.542 27.8779 26.758 27.6679 26.902 27.4039C27.046 27.1399 27.118 26.8039 27.118 26.3959C27.118 26.0119 27.046 25.6879 26.902 25.4239C26.758 25.1599 26.548 24.9499 26.272 24.7939C26.008 24.6379 25.69 24.5299 25.318 24.4699C24.946 24.3979 24.538 24.3619 24.094 24.3619Z" fill="white"/>
</g>
<defs>
<clipPath id="clip0_612_1018">
<rect width="50" height="50" fill="white"/>
</clipPath>
</defs>
</svg>
