<svg width="50" height="50" viewBox="0 0 50 50" fill="none" xmlns="http://www.w3.org/2000/svg">
<g clip-path="url(#clip0_612_989)">
<path d="M48.2929 24.293L25.7071 1.7072C25.3166 1.31668 24.6834 1.31668 24.2929 1.7072L1.70708 24.293C1.31655 24.6835 1.31655 25.3167 1.70708 25.7072L24.2929 48.293C24.6834 48.6835 25.3166 48.6835 25.7071 48.293L48.2929 25.7072C48.6834 25.3167 48.6834 24.6835 48.2929 24.293Z" fill="#CC0033"/>
<path fill-rule="evenodd" clip-rule="evenodd" d="M23.5858 1.00009C24.3668 0.219042 25.6331 0.219047 26.4142 1.00009L49 23.5859C49.781 24.3669 49.781 25.6333 49 26.4143L26.4142 49.0001C25.6331 49.7811 24.3668 49.7811 23.5858 49.0001L0.999971 26.4143C0.21892 25.6333 0.218925 24.3669 0.999971 23.5859L23.5858 1.00009ZM25 2.41431L2.41418 25.0001L25 47.5859L47.5858 25.0001L25 2.41431Z" fill="white"/>
<path fill-rule="evenodd" clip-rule="evenodd" d="M13.1343 35.5252C13.1336 35.5267 13.1329 35.5283 13.1321 35.5299C13.1317 35.5307 13.1316 35.5309 13.1319 35.5305L13.1329 35.5283L13.133 35.5281C13.1326 35.5288 13.1323 35.5295 13.1321 35.5299C12.8408 36.1524 12.101 36.4233 11.4762 36.1349C10.8494 35.8456 10.5757 35.103 10.865 34.4762L12 35C10.865 34.4762 10.8654 34.4754 10.8657 34.4747L10.8665 34.4731L10.8682 34.4693L10.8726 34.4601L10.8848 34.4346C10.8946 34.4146 10.9075 34.3884 10.9239 34.3566C10.9565 34.293 11.0026 34.2065 11.0631 34.1005C11.1842 33.8887 11.3635 33.5981 11.6096 33.2554C12.1014 32.5703 12.8629 31.6727 13.9618 30.7799C16.1771 28.9799 19.7035 27.25 25 27.25C30.2965 27.25 33.8229 28.9799 36.0382 30.7799C37.1371 31.6727 37.8986 32.5703 38.3904 33.2554C38.6365 33.5981 38.8158 33.8887 38.9369 34.1005C38.9974 34.2065 39.0435 34.293 39.0761 34.3566C39.0925 34.3884 39.1054 34.4146 39.1152 34.4346L39.1274 34.4601L39.1318 34.4693L39.1335 34.4731L39.1343 34.4747C39.1346 34.4754 39.1349 34.4762 38 35L39.1349 34.4762C39.4242 35.103 39.1506 35.8456 38.5238 36.1349C37.899 36.4233 37.1592 36.1524 36.8679 35.5299M36.867 35.5281C36.8674 35.5289 36.8677 35.5295 36.8679 35.5299C36.8683 35.5307 36.8683 35.5309 36.8681 35.5305L36.8671 35.5283L36.867 35.5281ZM36.867 35.5281C36.8648 35.5235 36.8597 35.5132 36.8516 35.4974C36.8354 35.4658 36.8073 35.4126 36.7663 35.3409C36.6842 35.1972 36.551 34.98 36.3596 34.7134C35.9764 34.1797 35.3629 33.4523 34.4618 32.7201C32.6771 31.2701 29.7035 29.75 25 29.75C20.2965 29.75 17.3229 31.2701 15.5382 32.7201C14.6371 33.4523 14.0236 34.1797 13.6404 34.7134C13.449 34.98 13.3158 35.1972 13.2337 35.3409C13.1927 35.4126 13.1646 35.4658 13.1484 35.4974C13.1403 35.5132 13.1352 35.5235 13.133 35.5281L13.1338 35.5263L13.1343 35.5252M36.867 35.5281L36.8662 35.5263Z" fill="white"/>
</g>
<defs>
<clipPath id="clip0_612_989">
<rect width="50" height="50" fill="white"/>
</clipPath>
</defs>
</svg>
